<?xml version="1.0" encoding="utf-8"?>
<!-- Generator: Adobe Illustrator 25.2.0, SVG Export Plug-In . SVG Version: 6.00 Build 0)  -->
<svg version="1.1" id="Слой_1" xmlns="http://www.w3.org/2000/svg" xmlns:xlink="http://www.w3.org/1999/xlink" x="0px" y="0px"
	 viewBox="0 0 607.09 424.44" style="enable-background:new 0 0 607.09 424.44;" xml:space="preserve">
<style type="text/css">
	.st0{fill:#F7F7F7;}
	.st1{fill:#73C0FF;}
	.st2{fill:#4DA8F2;}
	.st3{fill:#B5DEFF;}
	.st4{fill:#FFFFFF;}
	.st5{fill:url(#SVGID_1_);}
	.st6{fill:#DFE1E8;}
	.st7{fill:#EEF0F7;}
	.st8{fill:#3C4145;}
	.st9{fill:#EEA886;}
	.st10{fill:#E55353;}
	.st11{fill:#A77860;}
	.st12{fill:#BD4444;}
	.st13{fill:#323657;}
	.st14{fill:#706865;}
	.st15{fill:#B59074;}
	.st16{fill:#918783;}
	.st17{fill:#1D3B54;}
	.st18{fill:#CF8C6C;}
	.st19{fill:#EB4747;}
	.st20{fill:#DB9C7C;}
	.st21{fill:#152C3D;}
	.st22{fill:#EDDAD3;}
	.st23{fill:#BFB2AC;}
	.st24{fill:#D9C7C1;}
	.st25{fill:#EEA987;}
	.st26{fill:#E8734D;}
	.st27{fill:#C78D71;}
	.st28{fill:#5073AB;}
	.st29{fill:#F5F7FF;}
	.st30{fill:#78C2FF;}
	.st31{fill:#1A598C;}
	.st32{fill:#2273B5;}
	.st33{fill:#F3F3F3;}
	.st34{fill:#1D2033;}
	.st35{fill:#50558A;}
	.st36{fill:#292C47;}
	.st37{fill:#3A4066;}
	.st38{fill:#E2D2CA;}
	.st39{fill:#CCBDB7;}
	.st40{fill:#4667A8;}
	.st41{fill:#FFC05C;}
	.st42{fill:#424773;}
	.st43{fill:#3A3F47;}
	.st44{fill:#5E5854;}
	.st45{fill:#5F8BE3;}
	.st46{fill:#CECFD6;}
	.st47{fill:#5C5552;}
	.st48{fill:#2E436E;}
	.st49{fill:#949494;}
</style>
<g>
	<rect x="0" y="0" class="st0" width="607.09" height="424.44"/>
	<g>
		<g>
			<path class="st1" d="M506.97,58.63c-0.82-3.17-2.08-6.17-3.7-8.93l3.77-5.67l-5.23-5.23l-5.23-5.23l-5.67,3.77
				c-2.76-1.62-5.75-2.88-8.93-3.7l-1.34-6.67h-7.4h-7.4l-1.34,6.67c-3.17,0.82-6.17,2.08-8.93,3.7l-5.67-3.77l-5.23,5.23
				l-5.23,5.23l3.77,5.67c-1.62,2.76-2.88,5.75-3.7,8.93l-6.67,1.34v7.4v7.4l6.67,1.34c0.82,3.17,2.08,6.17,3.7,8.93l-3.77,5.67
				l5.23,5.23l5.23,5.23l5.67-3.77c2.76,1.62,5.75,2.88,8.93,3.7l1.34,6.67h7.4h7.4l1.34-6.67c3.17-0.82,6.17-2.08,8.93-3.7
				l5.67,3.77l5.23-5.23l5.23-5.23l-3.77-5.67c1.62-2.76,2.88-5.75,3.7-8.93l6.67-1.34v-7.4v-7.4L506.97,58.63z M473.23,93.29
				c-14.31,0-25.92-11.61-25.92-25.92c0-14.31,11.6-25.92,25.92-25.92c14.32,0,25.92,11.6,25.92,25.92
				C499.15,81.68,487.55,93.29,473.23,93.29z"/>
		</g>
		<g>
			<path class="st1" d="M517.06,121.53c-0.38-1.46-0.95-2.83-1.7-4.09l1.73-2.6l-2.4-2.4l-2.4-2.4l-2.6,1.73
				c-1.26-0.75-2.64-1.32-4.09-1.7l-0.62-3.06h-3.39h-3.39l-0.62,3.06c-1.46,0.38-2.83,0.95-4.09,1.7l-2.6-1.73l-2.4,2.4l-2.4,2.4
				l1.73,2.6c-0.75,1.26-1.32,2.64-1.7,4.09l-3.06,0.62v3.39v3.39l3.06,0.62c0.38,1.46,0.95,2.83,1.7,4.09l-1.73,2.6l2.4,2.4
				l2.4,2.4l2.6-1.73c1.26,0.75,2.64,1.32,4.09,1.7l0.62,3.06h3.39h3.39l0.62-3.06c1.46-0.38,2.83-0.95,4.09-1.7l2.6,1.73l2.4-2.4
				l2.4-2.4l-1.73-2.6c0.75-1.26,1.32-2.64,1.7-4.09l3.06-0.62v-3.39v-3.39L517.06,121.53z M501.59,137.42
				c-6.56,0-11.88-5.32-11.88-11.88c0-6.56,5.32-11.88,11.88-11.88c6.56,0,11.88,5.32,11.88,11.88
				C513.48,132.1,508.16,137.42,501.59,137.42z"/>
		</g>
		<g>
			
				<rect x="302.12" y="246.67" transform="matrix(-1 -1.224647e-16 1.224647e-16 -1 640.6264 603.8682)" class="st2" width="36.39" height="110.53"/>
		</g>
		<g>
			<path class="st3" d="M179.18,299.91h282.26c8.83,0,15.98-7.16,15.98-15.98V94.23c0-8.83-7.15-15.98-15.98-15.98H179.18
				c-8.83,0-15.98,7.16-15.98,15.98v189.7C163.2,292.76,170.36,299.91,179.18,299.91z"/>
		</g>
		<g>
			
				<rect x="175.51" y="54.65" transform="matrix(-1 -1.224647e-16 1.224647e-16 -1 640.6265 319.8283)" class="st4" width="289.61" height="210.52"/>
		</g>
		<g>
			<linearGradient id="SVGID_1_" gradientUnits="userSpaceOnUse" x1="175.5093" y1="67.367" x2="465.1172" y2="67.367">
				<stop  offset="0" style="stop-color:#40D5E6"/>
				<stop  offset="1" style="stop-color:#5577FF"/>
			</linearGradient>
			<polygon class="st5" points="175.51,80.08 465.12,80.08 465.12,54.65 175.51,54.65 			"/>
		</g>
		<g>
			<path class="st2" d="M310.18,281.07c0,5.6,4.54,10.14,10.14,10.14c5.6,0,10.13-4.54,10.13-10.14c0-5.6-4.54-10.14-10.13-10.14
				C314.71,270.93,310.18,275.47,310.18,281.07z"/>
		</g>
		<g>
			<g>
				<g>
					<path class="st6" d="M273.26,105.7h86.5c1.94,0,3.52-1.57,3.52-3.52v-0.5c0-1.94-1.57-3.52-3.52-3.52h-86.5
						c-1.94,0-3.52,1.57-3.52,3.52v0.5C269.74,104.13,271.32,105.7,273.26,105.7z"/>
				</g>
			</g>
		</g>
		<g>
			<g>
				<g>
					<path class="st6" d="M273.26,119.29h86.5c1.94,0,3.52-1.57,3.52-3.52v-0.5c0-1.94-1.57-3.52-3.52-3.52h-86.5
						c-1.94,0-3.52,1.57-3.52,3.52v0.5C269.74,117.71,271.32,119.29,273.26,119.29z"/>
				</g>
			</g>
		</g>
		<g>
			<g>
				<g>
					<path class="st6" d="M273.26,132.88h86.5c1.94,0,3.52-1.57,3.52-3.52v-0.5c0-1.94-1.57-3.52-3.52-3.52h-86.5
						c-1.94,0-3.52,1.57-3.52,3.52v0.5C269.74,131.3,271.32,132.88,273.26,132.88z"/>
				</g>
			</g>
		</g>
		<g>
			<g>
				<g>
					<g>
						<path class="st6" d="M313.89,250.36H205.33c-9.05,0-16.42-7.36-16.42-16.42v-66.04c0-9.05,7.36-16.42,16.42-16.42h108.56
							c9.05,0,16.42,7.36,16.42,16.42v66.04C330.31,243,322.95,250.36,313.89,250.36z M205.33,153.55
							c-7.92,0-14.36,6.44-14.36,14.36v66.04c0,7.92,6.44,14.36,14.36,14.36h108.56c7.92,0,14.36-6.44,14.36-14.36v-66.04
							c0-7.92-6.44-14.36-14.36-14.36H205.33z"/>
					</g>
				</g>
			</g>
		</g>
		<g>
			<g>
				<g>
					<path class="st6" d="M213.92,176.38h91.39c4,0,7.25-3.25,7.25-7.25v-1.38c0-4-3.25-7.25-7.25-7.25h-91.39
						c-4,0-7.25,3.25-7.25,7.25v1.38C206.67,173.13,209.92,176.38,213.92,176.38z"/>
				</g>
			</g>
		</g>
		<rect x="238.46" y="353.03" class="st3" width="163.71" height="8.34"/>
		<g>
			<path class="st7" d="M432.55,173.19c0,8.68-4.69,16.26-11.67,20.35c-1.4,0.82-2.9,1.5-4.47,2.02c-0.14,0.05-0.28,0.09-0.43,0.14
				c-2.21,0.69-4.56,1.06-7,1.06c-3.76,0-7.32-0.88-10.47-2.45c-7.76-3.86-13.09-11.86-13.09-21.11c0-13.01,10.55-23.57,23.57-23.57
				C422,149.62,432.55,160.18,432.55,173.19z"/>
			<g>
				<path class="st8" d="M403.35,170.7c0,0-1.61-10.41,7.01-10.22c8.62,0.19,8.51,5.34,8.35,10.45c-0.15,5.11-3.46,4.73,0.27,11.83
					c3.73,7.11-3.23,7.11-3.23,7.11l-5.4-7.42L403.35,170.7z"/>
			</g>
			<g>
				<path class="st9" d="M409.42,161.48c0,0-5.84,0.92-6.07,9.22c-0.23,8.3,1.58,10.07,6.69,8.34c5.11-1.73,6.72-10.41,6.84-11.76
					C416.99,165.94,417.3,160.48,409.42,161.48z"/>
			</g>
			<g>
				<path class="st10" d="M419.68,190.35c0.02,2.49-1.31,4.15-3.27,5.21c-0.14,0.05-0.28,0.09-0.43,0.14
					c-2.21,0.69-4.56,1.06-7,1.06c-3.76,0-7.32-0.88-10.47-2.45c-0.71-1.42,0.32-3.43,2.41-6.52c1.43-2.12,2.84-4.29,5.25-5.34
					c3.55-0.57,7.31-0.6,9.96,0.9C418.24,184.54,419.65,186.7,419.68,190.35z"/>
			</g>
			<g>
				<path class="st10" d="M402.06,187.66l-2.68,4.23c0.01-0.02,0.18-0.66,0.49-2.52c0.06-0.35,0.12-0.75,0.19-1.19
					c0.02-0.13,0.05-0.26,0.08-0.39v0c1.15-2.65,4.73-4.62,4.86-4.69L402.06,187.66z"/>
			</g>
			<g>
				<path class="st9" d="M420.88,193.54c-1.4,0.82-2.9,1.5-4.47,2.02c-0.14,0.05-0.28,0.09-0.43,0.14c-0.6-1.54-1.11-2.87-1.22-3.21
					c-0.03-0.1-0.11-0.29-0.21-0.54c-0.48-1.18-1.57-3.79-1.58-5.84c-0.01-1.32,0.43-2.4,1.75-2.71c0.52-0.12,0.99-0.13,1.41-0.05
					c1.48,0.27,2.35,1.6,2.83,2.78c0.01,0.02,0.02,0.04,0.02,0.06c0.4,1,0.53,1.88,0.53,1.88s0.02,0.09,0.07,0.26
					c0.08,0.33,0.24,0.95,0.45,1.77C420.26,191.04,420.56,192.24,420.88,193.54z"/>
			</g>
			<g>
				<path class="st9" d="M413.33,175.3c-0.51,0.96-1.04,6.89-1.04,6.89s-7.14,2.7-6.41,1.17c0.33-0.69,0.43-1.59,0.44-2.37
					c0.01-0.61-0.04-1.15-0.08-1.44c-0.02-0.16-0.03-0.25-0.03-0.25S413.83,174.35,413.33,175.3z"/>
			</g>
			<g>
				<path class="st8" d="M407.04,167.44c0,0,3,4.88,5.72,6.8c2.73,1.92,1.34,3.46,1.34,3.46s7.12-14.99,0.35-16.02
					c-6.77-1.04-10.92-1.11-11.11,9.03C403.35,170.7,406.43,167.36,407.04,167.44z"/>
			</g>
			<g>
				<path class="st11" d="M410.3,178.94c-1.1,1.62-3.99,2.05-3.99,2.05s0,0,0,0c0.01-0.61-0.04-1.15-0.08-1.44
					C408.09,179.91,410.3,178.94,410.3,178.94z"/>
			</g>
			<path class="st12" d="M400.15,187.76C400.15,187.76,400.15,187.76,400.15,187.76c0,0-0.16,0.32-0.28,1.61l1.05-1.59
				c0,0,1.88-2.69,2.52-3.4c0.64-0.7,1.58-1.32,1.58-1.32S401.27,184.85,400.15,187.76z"/>
			<path class="st10" d="M414.36,191.78c0,0,4.58-1.8,5.94-1.9c0,0-0.92-7.36-5.43-6.58C410.37,184.07,414.36,191.78,414.36,191.78z
				"/>
			<path class="st9" d="M406.17,182.45c0,0-3.37,5.18-2.23,5.63c1.14,0.45,7.31-0.6,9.93-5.52
				C413.87,182.55,409.95,180.54,406.17,182.45z"/>
		</g>
		
			<rect x="121.56" y="296.32" transform="matrix(1 -7.578531e-03 7.578531e-03 1 -2.2544 1.0689)" class="st13" width="36.72" height="3.36"/>
		
			<rect x="143.71" y="279.82" transform="matrix(0.2925 -0.9563 0.9563 0.2925 -154.5199 354.1533)" class="st13" width="36.72" height="3.36"/>
		<g>
			<rect x="221.41" y="303.93" class="st14" width="2.87" height="88.28"/>
		</g>
		<g>
			
				<rect x="113.91" y="298.91" transform="matrix(-1 -1.224647e-16 1.224647e-16 -1 353.7588 602.8477)" class="st15" width="125.94" height="5.02"/>
		</g>
		<g>
			
				<rect x="130.02" y="303.93" transform="matrix(-1 -1.224647e-16 1.224647e-16 -1 262.9111 696.1485)" class="st14" width="2.87" height="88.28"/>
		</g>
		<rect x="72.46" y="334.25" class="st16" width="3.44" height="43.48"/>
		<path class="st17" d="M117.42,372.6c0,0,0.03,1.92,0.66,4.16c0.46,1.64,1.38,8,2.55,8.88c1.17,0.89,4.96,3.24,4.4,5.66
			c-0.56,2.42-1.03,4.11-5.11,2.67c-4.08-1.43-6.81-2.25-7.6-5.84c-0.78-3.58-3.02-6.85-3.02-6.85l-2.95,7.34l-1.56-0.63
			c0,0,2.35-7.93,2.15-8.64c-0.2-0.71,1.08-7.01,6.02-8.57C117.9,369.25,117.42,372.6,117.42,372.6z"/>
		<path class="st17" d="M144.7,374.92c0,0,0.75,1.77,2.16,3.61c1.04,1.35,4.26,6.91,5.68,7.29c1.42,0.39,5.81,1.16,6.2,3.61
			c0.39,2.45,0.58,4.2-3.74,4.39c-4.32,0.19-7.16,0.45-9.23-2.58c-2.07-3.03-5.36-5.23-5.36-5.23v7.91h-1.68
			c0,0-0.77-8.24-1.23-8.82c-0.45-0.58-1.61-6.91,2.39-10.2C143.89,371.62,144.7,374.92,144.7,374.92z"/>
		<path class="st9" d="M100.74,267.38c0,0,0.96-3.41,1.05-3.85c0.09-0.44,1-1.33,2.14-2.25c1.13-0.92,3.08-1.66,3.32-1.59
			c0.24,0.08,0.52,0.04,0.92,0.55c0.4,0.51,0.45,1.16,0.45,1.16s0.78,0.4,0.79,1.2c0,0,0.72,0.41,0.58,1.33c0,0,0.69,0.42,0.53,1.08
			c0,0-0.91,0.89-1.15,1.31c-0.24,0.43-2.26,2.14-4.45,3.48C104.91,269.8,102.12,271.86,100.74,267.38z"/>
		<path class="st18" d="M104.92,264.68c0,0,0.41,1.43,0.33,1.9c-0.09,0.46,3.28,0.53,3.28,0.53S106.68,264.22,104.92,264.68z"/>
		<path class="st17" d="M67.05,273.24c1.36-2.2,3.17-3.19,8.92,0.79c5.75,3.98,4.4,3.2,5.78,4.46c1.38,1.26,7.42,4.42,7.42,4.42
			s3.53-3.51,5.22-6c1.91-2.81,5.89-10.31,5.89-10.31l5.58,4.15c0,0-10.84,19.66-13.11,21.11c-2.26,1.45-9.09-0.98-12.64-2.47
			c-3.55-1.5-7.31-3.43-8.93-3.84C69.55,285.15,63.51,278.97,67.05,273.24z"/>
		
			<rect x="100.79" y="256.13" transform="matrix(0.2143 -0.9768 0.9768 0.2143 -166.561 306.2694)" class="st19" width="12.61" height="1.07"/>
		<path class="st20" d="M106.94,259.92c0,0-2.81,2.41-2.48,2.91c0.33,0.5,0.76,0.48,0.76,0.48l-0.71,1.52c0,0,0.1,1.27,1.45,0.79
			c0,0-0.03,1.2,1.22,0.58c0,0,0.33,0.8,0.96,0.61c0.63-0.18,2.38-1.81,2.38-1.81s0.21-0.51-0.53-1.08c0,0,0.19-0.87-0.58-1.33
			c0,0,0.04-0.72-0.79-1.2c0,0-0.03-1.61-1.37-1.71C107.24,259.69,107.05,259.82,106.94,259.92z"/>
		<path class="st9" d="M101.83,263.56c0,0,1.88-1.7,3.32-2.18c0.33-0.11,0.66-0.15,0.88,0.11c0.22,0.26,0.13,0.92-0.65,1.7
			c-0.78,0.78-1.43,2.14-1.43,2.14S102.92,265.89,101.83,263.56z"/>
		<path class="st21" d="M93.87,285.18c0,0,1.13-4.11-0.2-7.29c0,0,0.51,3.29-0.93,5.63C91.69,285.22,93.87,285.18,93.87,285.18z"/>
		<path class="st22" d="M114.43,285.81c0,0,3.04-22.51,8.33-32.32h-7.79c0,0-8.72,15.37-7.09,30.9L114.43,285.81z"/>
		<path class="st9" d="M116.3,268.96c0,0,0.89-1.66,1.1-2.2c0.21-0.54,1.09,0.4,0.96,1.09C118.23,268.55,116.3,268.96,116.3,268.96z
			"/>
		<path class="st9" d="M123.21,272.72c0,0-0.24,0.81-0.51,1.12c0,0-0.54,0.51-0.91,0.91c-0.12,0.12-0.21,0.23-0.27,0.31
			c-0.23,0.33-0.65,1.11-1.42,1.74c-0.78,0.63-3.75,2.56-3.75,2.56l-2.1-2.24l-1.68-1.75c0,0,1.42-5.33,2.08-6
			c0.06-0.07,0.13-0.13,0.2-0.18c0.61-0.51,1.28-0.63,1.63-0.87c0.13-0.08,1.47-0.84,1.9-0.67c0.6,0.23,0.92,0.63,1.01,1.06
			c0,0,1.15,0.5,1.53,1.25c0,0,1.07,0.43,1.28,1.5C122.2,271.47,123.24,272.03,123.21,272.72z"/>
		<path class="st9" d="M137,330.85c0,0-5.15,11.58-8.82,19.84c-0.62,1.39-1.19,2.69-1.7,3.82c-0.59,1.33-1.08,2.42-1.41,3.18
			c-2.34,5.26-8.09,16.73-8.09,16.73s-4.33,0.17-4.58-3.51c0,0,4.15-7.96,4.15-13.56c0-5.6,0.75-22.08,6.1-25.64
			C129.16,327.38,133.39,326.56,137,330.85z"/>
		<path class="st9" d="M89.41,308.84c0,0,1.09,1.09,2,1.34c0.92,0.25,16.28,1.42,23.38,3.76c7.1,2.34,16.54,3.84,18.29,5.85
			c1.75,2,4.68,13.03,4.59,15.12c-0.08,2.09,6.24,37.27,7.03,40.02c0.42,1.46-5.72,0.9-5.72,0.9s-8.72-20.79-10.58-24.63
			c-3.42-7.06-3.59-15.7-4.84-17.04c-1.25-1.34-15.2-4.34-23.22-4.34s-25.97,0.67-27.89-0.42c-1.92-1.09-13.95-9.02-8.94-19.62
			C68.53,299.16,89.41,308.84,89.41,308.84z"/>
		<path class="st17" d="M124.08,316.44l-12.72,24.47c0,0-3.83-9.08-10.52-10.65c-6.68-1.56-33.36-0.72-33.36-0.72
			s-12.24-15.48-1.76-23.61c10.48-8.12,22.72,1.28,22.72,1.28s2.53,2.74,3.75,2.8C101.1,310.46,110.59,312.11,124.08,316.44z"/>
		<path class="st9" d="M152.54,385.82c0,0-3.87,0.97-5.36,0c-1.48-0.97-6.53-9.5-8.2-10.01c0,0,1.62-3.29,5.72-0.9
			C144.7,374.92,151.44,384.4,152.54,385.82z"/>
		<path class="st9" d="M120.62,385.64c0,0-3.95-0.55-4.97-2c-1.02-1.45-2.52-11.25-3.88-12.34c0,0,2.73-2.45,5.64,1.3
			C117.42,372.6,120.14,383.92,120.62,385.64z"/>
		<path class="st9" d="M80.23,231.98c3.06-0.15,9.83,1.39,10.87,9.48c0,0-0.24,2.18-0.77,3.9c-0.53,1.71,1.01,6.77,0.61,7.02
			c-0.4,0.25-2.06,0.57-2.06,0.57s-1.78,5.52-3.72,5.48c-1.94-0.05-9.28-1.56-12.74-8.44C68.96,243.12,67.89,232.58,80.23,231.98z"
			/>
		<path class="st9" d="M82.54,255.91c0,0-0.24,0.77-0.51,1.92c-0.14,0.59-0.29,1.27-0.41,2c-0.35,2.02-0.56,4.37-0.04,5.94
			c0,0-4.29,1.49-7.67-4.57c0,0,1.45-6.53-0.44-10.49C71.58,246.75,82.54,255.91,82.54,255.91z"/>
		<path class="st17" d="M91.1,241.46c0,0-4.69,4.21-9.64,3.87c-5.03-0.34-8.3,5.95-8.3,5.95s-7.49-9.4-1.45-17.01
			C77.74,226.68,92.17,232.03,91.1,241.46z"/>
		<path class="st9" d="M79.18,245.3c-0.03-0.95-1.09-2.38-2.65-1.08c-1.56,1.3,0.54,5.83,1.82,5.39
			C79.62,249.17,79.2,246.29,79.18,245.3z"/>
		<path class="st11" d="M82.03,257.83c-0.14,0.59-0.29,1.27-0.41,2c-3.98-2.53-5.99-5.6-5.99-5.6
			C77.9,256.29,82.03,257.83,82.03,257.83z"/>
		<path class="st17" d="M93.65,280.99c-0.9,4.18-3.28,4.4-3.13,7.49c0.14,3.09,1.07,3.35-0.53,8.23c-0.3,0.9-0.54,1.88-0.73,2.89
			c-0.02,0.12-0.05,0.24-0.07,0.36c-0.1,0.56-0.19,1.13-0.27,1.69c-0.14,1.03-0.24,2.04-0.32,2.97c-0.19,2.4,1.58,4.26,1.58,4.26
			s-15.63,9.37-26.36,8.05c0,0,2.78-11.68,4.31-15.69c1.53-4.01,1.07-22.55-0.06-26.52c-1.66-5.87,1.66-14.67,6.19-15.82l7.04,3.26
			c0,0,7.09,8.46,8.68,9.74C91.57,273.16,94.56,276.75,93.65,280.99z"/>
		<path class="st17" d="M70.39,263.85c1.99-1.65,4.86-4.49,9.06,1.12c4.19,5.6,7.24,9.21,8.15,10.84
			c0.91,1.63,8.79,13.01,8.79,13.01s4.19-3.89,6.58-5.71c2.7-2.06,10.05-9.72,10.05-9.72l4.86,5.39c0,0-16.87,18.72-19.48,19.38
			c-2.61,0.66-9.91-5.91-12.81-8.46c-2.89-2.55-11.01-11.82-12.42-12.72C71.78,276.08,65.21,268.17,70.39,263.85z"/>
		<path class="st11" d="M128.17,350.7c-0.62,1.39-1.19,2.69-1.7,3.82c-1.89-6.09-1.74-16.26-1.74-16.26
			C125.88,345.35,128.14,350.62,128.17,350.7z"/>
		<rect x="46.67" y="329.54" class="st3" width="54.18" height="5.96"/>
		<path class="st3" d="M74.86,310.53c0,0-1.37,5.52,5.06,6.78c6.43,1.25,14.34,2.86,14.34,12.78h-22.3L74.86,310.53z"/>
		<polygon class="st9" points="107.93,250.39 108.85,248.7 108.97,250.62 		"/>
		<path class="st3" d="M46.67,335.5l-18.94-79.6c0,0,34.24-5.35,38.32,10.03c4.08,15.38,10.79,61.05,18.95,63.87
			C93.16,332.63,46.67,335.5,46.67,335.5z"/>
		<path class="st21" d="M90.71,294.05c0,0-0.35,1.46-0.72,2.67l-8.33-10.8L90.71,294.05z"/>
		<path class="st17" d="M69.83,244.53c0,0,3.29,8.7,2.4,11.08c0,0,5.14-2.2,4.2-7.9C75.49,242.01,69.83,244.53,69.83,244.53z"/>
		<polygon class="st17" points="81.71,262.62 81.71,260.9 74.4,257.34 71.87,260.26 		"/>
		<path class="st23" d="M107.62,388.95c0,1.56-1.27,2.83-2.83,2.83c-1.56,0-2.83-1.27-2.83-2.83c0-1.56,1.27-2.83,2.83-2.83
			C106.35,386.12,107.62,387.39,107.62,388.95z"/>
		<polygon class="st16" points="43.84,386.15 44.56,388.16 74.86,378.77 73.41,374.69 		"/>
		<polygon class="st16" points="104.79,386.15 104.07,388.16 73.76,378.77 75.1,374.43 		"/>
		<polygon class="st16" points="83.43,387.95 83.43,390.29 73.76,378.77 75.1,374.43 		"/>
		<path class="st23" d="M83.68,388.95c0,1.56-1.27,2.83-2.83,2.83c-1.56,0-2.83-1.27-2.83-2.83c0-1.56,1.27-2.83,2.83-2.83
			C82.41,386.12,83.68,387.39,83.68,388.95z"/>
		<circle class="st23" cx="43.84" cy="388.95" r="2.83"/>
		<g>
			<path class="st7" d="M441.25,104.44c0,7.51-2.7,14.39-7.18,19.73c-1.05,1.25-2.2,2.41-3.43,3.47c-0.35,0.3-0.71,0.6-1.08,0.89
				c-0.41,0.33-0.83,0.64-1.26,0.95c-4.04,2.86-8.79,4.77-13.95,5.4c-0.91,0.11-1.83,0.18-2.76,0.21c-0.33,0.01-0.67,0.02-1.01,0.02
				c-0.99,0-1.97-0.05-2.94-0.14c-1.08-0.1-2.15-0.26-3.19-0.48c-4.65-0.94-8.91-2.93-12.53-5.72c-1.09-0.84-2.13-1.75-3.1-2.73
				c-0.19-0.19-0.38-0.38-0.56-0.58c-0.69-0.73-1.34-1.49-1.95-2.28c-4.01-5.18-6.4-11.69-6.4-18.75
				c0-16.93,13.73-30.66,30.66-30.66C427.52,73.78,441.25,87.51,441.25,104.44z"/>
			<g>
				<g>
					<path class="st24" d="M430.56,121.36l-2.26,8.11c-4.04,2.86-8.79,4.77-13.95,5.4c-0.91,0.11-1.83,0.18-2.76,0.21
						c-0.33,0.01-0.67,0.02-1.01,0.02c-0.99,0-1.97-0.05-2.94-0.14c-1.08-0.1-2.15-0.26-3.19-0.48c-4.65-0.94-8.91-2.93-12.53-5.72
						c-0.43-2.68-0.9-5.65-1.31-8.43c2.25-0.84,9.43-3.28,13.95-4.81c0.06-0.02,0.13-0.04,0.19-0.06c0.1-0.04,0.2-0.07,0.29-0.1
						c0.27-0.09,0.52-0.18,0.77-0.26c0.25-0.08,0.48-0.16,0.7-0.24c0.93-0.31,1.58-0.53,1.81-0.61c0,0,0,0,0,0
						c0.06-0.02,0.09-0.03,0.09-0.03l0.05,0l6.09,0.46l1.02,0.08l0.32,0.02c0,0,0.05,0.01,0.14,0.03c0.37,0.09,1.43,0.37,2.85,0.8
						c0,0,0,0,0.01,0C422.51,116.73,428.36,118.82,430.56,121.36z"/>
				</g>
				<g>
					<path class="st25" d="M412.19,89.21c0,0,7.3,1.23,6.06,12.66c-1.24,11.43-7.68,10.42-8.11,10.4c-0.43-0.02-6.48,0.14-6.8-13.84
						C403.33,98.44,403.24,88.11,412.19,89.21z"/>
				</g>
				<g>
					<path class="st25" d="M415.38,108.97c0,0-0.25,4.7,0.19,5.73c0.45,1.02-5.86,4.26-9.78,0.57c0,0,0.79-5.14,0.55-6.96
						C406.1,106.49,415.38,108.97,415.38,108.97z"/>
				</g>
				<g>
					<path class="st25" d="M418.4,98.64c0,0,0.81-0.85,1.09,0.02c0.28,0.87-1.29,4.72-1.2,4.9c0,0-0.15,0.33-0.34,0.15
						C417.77,103.52,418.4,98.64,418.4,98.64z"/>
				</g>
				<g>
					<path class="st25" d="M403.42,98.34c0,0-0.78-0.88-1.09-0.02c-0.32,0.86,0.85,4.7,0.99,4.94c0,0,0.25,0.39,0.45,0.22
						C403.96,103.29,403.42,98.34,403.42,98.34z"/>
				</g>
				<g>
					<path class="st26" d="M418.86,97.67c-0.25,1.56-0.49,2.73-0.49,2.73l-1.06,1.39c0,0,0.06-3.07-0.1-3.55
						c-0.06-0.18-0.13-0.51-0.21-0.86c-0.12-0.58-0.25-1.23-0.33-1.45c-0.14-0.35-6.26-2.13-11.71,0.37c0,0,0.05,0.47,0.04,1
						c0,0.61-0.07,1.3-0.35,1.4c-0.52,0.19-0.3,3.59-0.3,3.59l-0.85-0.98c0,0-0.25-1.78-0.49-3.82c0,0,0,0,0-0.01
						c-0.05-0.48-0.11-0.97-0.16-1.45c-0.12-2.05,0.08-5.78,2.75-7.97c1.8-0.77,4.68-1.43,9.48,0.04c0,0,1.1,0.07,1.41,0.37
						C419.49,91.77,418.86,97.67,418.86,97.67z"/>
				</g>
				<path class="st27" d="M406.84,110.75c0,0,1.17,1.62,3.87,1.56c2.71-0.06,3.88-1.47,3.88-1.47s-1.28,2.68-3.89,2.65
					C408.09,113.46,406.84,110.75,406.84,110.75z"/>
				<path class="st25" d="M405.05,115.37c0,0,1.96,3.41,5.67,3.73c2.36,0.2,4.39-2.78,5.35-4.25
					C416.07,114.85,410.8,112.59,405.05,115.37z"/>
				<path class="st22" d="M415.39,113.77c0,0-1.49,1.96-4.67,4.05l1.98,3.05l3.37-6.02L415.39,113.77z"/>
				<path class="st22" d="M405.95,114.23c0,0,1.9,2.38,4.78,3.59l-2.17,3.14l-3.79-5.49L405.95,114.23z"/>
				<path class="st28" d="M410.72,117.82l1.69,2.58c0,0-1.78,1.01-3.43-0.06L410.72,117.82z"/>
				<path class="st13" d="M432.52,120.88c0,0-0.02,0.06-0.05,0.17c-0.19,0.66-0.9,3.21-1.83,6.59c-0.35,0.3-0.71,0.6-1.08,0.89
					c-0.41,0.33-0.83,0.64-1.26,0.95c-4.04,2.86-8.79,4.77-13.95,5.4c0.45-10.61,1.71-20.03,1.71-20.03
					c0.99,0.26,1.94,0.52,2.83,0.78c0,0,0,0,0.01,0c7.78,2.23,11.73,4.19,13.07,4.94c0.01,0,0.02,0.01,0.03,0.02
					C432.36,120.77,432.52,120.88,432.52,120.88z"/>
				<path class="st13" d="M404.46,134.49c-4.65-0.94-8.91-2.93-12.53-5.72c-1.09-0.84-2.13-1.75-3.1-2.73
					c-0.19-0.19-0.38-0.38-0.56-0.58c-0.54-2.28-0.89-3.77-0.92-3.86l0,0c0,0,3.79-2.49,17.21-6.07c0,0,0,0,0,0.01
					C404.57,115.84,404.58,124.45,404.46,134.49z"/>
				<path class="st28" d="M411.69,120.68c-0.12,2.79-0.14,8.22-0.09,14.41c-0.33,0.01-0.67,0.02-1.01,0.02
					c-0.99,0-1.97-0.05-2.94-0.14c0.59-7.63,1.58-12.4,2.04-14.29c0.15-0.62,0.24-0.93,0.24-0.93l1.8,0.3
					C411.71,120.24,411.7,120.45,411.69,120.68z"/>
				<g>
					<path class="st13" d="M434.07,124.17c-1.05,1.25-2.2,2.41-3.43,3.47c-0.35,0.3-0.71,0.6-1.08,0.89l2.41-7.97l0,0
						c0.01,0.01,0.02,0.01,0.03,0.02c0.15,0.1,0.3,0.25,0.47,0.47C432.95,121.67,433.49,122.75,434.07,124.17z"/>
				</g>
				<g>
					<path class="st13" d="M388.83,126.04c-0.19-0.19-0.38-0.38-0.56-0.58c-0.69-0.73-1.34-1.49-1.95-2.28
						c0.35-0.83,0.69-1.38,1.03-1.59l0,0L388.83,126.04z"/>
				</g>
			</g>
		</g>
		<path class="st29" d="M225.46,72.17h-34.4c-1.91,0-3.45-1.55-3.45-3.45v-2.7c0-1.91,1.55-3.45,3.45-3.45h34.4
			c1.91,0,3.45,1.55,3.45,3.45v2.7C228.91,70.62,227.37,72.17,225.46,72.17z"/>
		<g>
			<g>
				<g>
					<g>
						<path class="st30" d="M204.69,135.1c1.92,0.65,3.97,1.01,6.11,1.04c6.47,0.08,12.26-2.94,15.94-7.69
							c2.55-3.29,4.09-7.41,4.15-11.89c0.01-0.45,0-0.89-0.03-1.33c-0.11-1.99-0.51-3.91-1.16-5.7c-2.74-7.53-9.91-12.95-18.4-13.06
							c-4.57-0.06-8.8,1.43-12.19,3.99c-4.73,3.57-7.82,9.21-7.9,15.6C191.1,124.87,196.76,132.42,204.69,135.1z M196.17,116.11
							c0.06-4.75,2.35-8.96,5.85-11.63c2.56-1.95,5.75-3.09,9.21-3.05c6.36,0.08,11.74,4.15,13.79,9.79l0,0.01
							c0.49,1.34,0.79,2.78,0.87,4.27c0.02,0.33,0.02,0.66,0.02,1c-0.04,3.36-1.2,6.45-3.11,8.91c-2.76,3.56-7.1,5.83-11.95,5.77
							c-1.6-0.02-3.14-0.29-4.58-0.78C200.34,128.39,196.09,122.73,196.17,116.11z"/>
					</g>
				</g>
			</g>
			<g>
				<g>
					<g>
						<path class="st31" d="M222.81,125.41l3.93,3.04c-3.68,4.75-9.47,7.77-15.94,7.69c-2.14-0.03-4.19-0.39-6.11-1.04l1.59-4.7
							c1.44,0.49,2.98,0.76,4.58,0.78C215.71,131.24,220.05,128.97,222.81,125.41z"/>
					</g>
				</g>
			</g>
			<g>
				<g>
					<g>
						<path class="st32" d="M225.9,115.5l4.96-0.27c0.02,0.44,0.03,0.88,0.03,1.33c-0.06,4.49-1.6,8.6-4.15,11.89l-3.93-3.04
							c1.91-2.47,3.07-5.55,3.11-8.92C225.93,116.16,225.92,115.83,225.9,115.5z"/>
					</g>
				</g>
			</g>
			<g>
				<g>
					<g>
						<path class="st32" d="M225.9,115.5c-0.08-1.49-0.38-2.92-0.87-4.27l0-0.01l4.67-1.7c0.65,1.8,1.05,3.71,1.16,5.7L225.9,115.5z
							"/>
					</g>
				</g>
			</g>
			<g>
				<g>
					<g>
						<path class="st2" d="M199.12,100.45c3.39-2.56,7.62-4.05,12.19-3.99c8.49,0.11,15.66,5.53,18.4,13.06l-4.66,1.7l0-0.01
							c-2.05-5.65-7.43-9.71-13.79-9.79c-3.46-0.04-6.66,1.1-9.21,3.05L199.12,100.45z"/>
					</g>
				</g>
			</g>
		</g>
		<g>
			<g>
				<path class="st30" d="M358.65,174.62H345.8c-2.55,0-4.62-2.07-4.62-4.62v-12.85c0-2.55,2.07-4.62,4.62-4.62h12.85
					c2.55,0,4.62,2.07,4.62,4.62V170C363.28,172.55,361.21,174.62,358.65,174.62z"/>
			</g>
			<g>
				<g>
					<g>
						<path class="st33" d="M351.53,168.44l-5.59-4.87c-0.46-0.4-0.51-1.09-0.11-1.55c0.4-0.46,1.09-0.51,1.55-0.11l3.95,3.44
							l5.63-6.28c0.41-0.45,1.1-0.49,1.55-0.08c0.45,0.41,0.49,1.1,0.08,1.55L351.53,168.44z"/>
					</g>
				</g>
			</g>
		</g>
		<g>
			<g>
				<path class="st30" d="M358.65,202.94H345.8c-2.55,0-4.62-2.07-4.62-4.62v-12.85c0-2.55,2.07-4.62,4.62-4.62h12.85
					c2.55,0,4.62,2.07,4.62,4.62v12.85C363.28,200.87,361.21,202.94,358.65,202.94z"/>
			</g>
			<g>
				<g>
					<g>
						<path class="st33" d="M351.53,196.76l-5.59-4.87c-0.46-0.4-0.51-1.09-0.11-1.55c0.4-0.46,1.09-0.51,1.55-0.11l3.95,3.44
							l5.63-6.28c0.41-0.45,1.1-0.49,1.55-0.08c0.45,0.41,0.49,1.1,0.08,1.55L351.53,196.76z"/>
					</g>
				</g>
			</g>
		</g>
		<g>
			<g>
				<path class="st30" d="M358.65,231.27H345.8c-2.55,0-4.62-2.07-4.62-4.62v-12.85c0-2.55,2.07-4.62,4.62-4.62h12.85
					c2.55,0,4.62,2.07,4.62,4.62v12.85C363.28,229.2,361.21,231.27,358.65,231.27z"/>
			</g>
		</g>
		<g>
			<g>
				<g>
					<g>
						<path class="st34" d="M271.15,362.14c0,0,0.67,4.48,1.11,6.39c0.45,1.91,4.58,7.39,4.51,8.32c-0.07,0.93-1.82,2.03-2.7,1.28
							c-0.88-0.75-6.72-6.75-7.96-9.32c-1.25-2.57-5.38-5.92-5.8-7.06c-0.42-1.14,4.87-4.48,6.23-5.01S271.15,362.14,271.15,362.14z
							"/>
					</g>
				</g>
			</g>
			<path class="st9" d="M260.81,282.44c0,0,0.55,2.86,0.95,3.38c0.4,0.53,1.49,3.18,1.6,3.56c0.11,0.37,0.78,3.06,0.89,3.39
				c0.11,0.34-0.65,0.87-1.17,0.15c-0.32-0.45-0.89-2.18-1.12-2.74c-0.23-0.56-0.94-2.33-1.14-2.01c-0.19,0.32-0.14,2.7-0.18,3.31
				c-0.03,0.61,0.36,2.49,0.54,3.27s1.22,4.04,0.8,4.22c-0.42,0.18-0.77,0.13-1.3-0.75c0,0-0.85,0.47-1.34-0.6
				c0,0-0.76,0.28-1.23-1.12c0,0-0.54-0.3-0.75-0.8c-0.21-0.5-1.44-4.79-1.43-6.55c0.01-1.75,0.42-2.97,0.35-4.21
				c-0.07-1.24-0.71-3.88-0.71-3.88L260.81,282.44z"/>
			<polygon class="st35" points="268.13,356.04 266.54,356.74 271.15,362.14 272.68,360.45 			"/>
			<path class="st34" d="M284.25,367.35c0,0-1.03,2.47-1.89,3.46c-0.87,0.98-4.18,2.73-4.2,5.65c-0.02,3.16,5.59,2.28,7.78,2.17
				c2.19-0.12,2.36-1.8,3.28-3.59c0.92-1.79,1.85-1.49,2.03-2.93c0.17-1.44-0.71-4.67-0.71-4.67L284.25,367.35z"/>
			<path class="st35" d="M284.16,366.43l-0.16,1.5c0,0,3.45,1.24,6.71,0.13l-0.18-2.05L284.16,366.43z"/>
			<path class="st36" d="M303.28,328.37c0-3.89-2.84-37.87-2.71-39.17c0.09-0.85-0.82-8.98-1.46-14.54
				c-0.01-0.05-0.01-0.1-0.02-0.14c0-0.01,0-0.02,0-0.03c-0.18-1.56-0.34-2.91-0.44-3.81c-0.05-0.42-0.09-0.74-0.11-0.95
				c-0.02-0.17-0.03-0.26-0.03-0.26s-18.34-3.62-27.85-0.2c-0.4,0.14-0.78,0.3-1.14,0.47c0,0-0.02,0.16-0.06,0.47
				c-0.1,0.7-0.29,2.17-0.56,4.16c-0.04,0.34-0.09,0.69-0.14,1.05c-1.35,10.25-0.48,21.38,1.88,32.78
				c2.32,11.18,3.6,19.54,3.84,21.17c0.32,2.13,1.25,7.99,2.28,14.42c-5.05,6.23-9.35,11.52-9.03,12.04c0.8,1.3,7.88,8.63,8.27,7.33
				c0,0,1.28-1.45,3.28-3.76c0.64,3.93,1.07,6.62,1.07,6.62s7.76,1.85,10.62,0.17c0,0-1.12-8.53-2.29-17.8
				C295.8,339.85,303.28,330.41,303.28,328.37z M286.07,325.55c-0.1-5.23-2.42-34.53-2.18-34.53c1.15,0,7.59,27.9,7.83,31.83
				c0.05,0.8-0.96,2.6-2.58,4.97c-0.73,1.07-1.59,2.25-2.53,3.5l0,0C286.29,328.46,286.08,326.35,286.07,325.55z"/>
			<g>
				<path class="st24" d="M306.34,220.86l-4.93,17.69c-0.17,0.57-0.37,1.28-0.59,2.1l-0.01,0.03c0,0.01,0,0.01-0.01,0.02
					c-0.82,3.15-1.84,7.96-2.14,13.3c-0.21,3.64,0.47,18.28,0.47,18.28s-7.46,2.78-18.63,2.08c0,0-12.01-0.28-11.03-7.64
					c2.59-19.49,0.06-27.53-0.28-29.48c0,0-1.63-9.47-2.8-17.4c3.38-1.26,17.82-6.11,17.82-6.11l7.48,0.56
					C291.69,214.29,303.06,217.09,306.34,220.86z"/>
			</g>
			<g>
				<path class="st25" d="M287.96,188.72c0,0,7.3,1.23,6.06,12.66c-1.24,11.43-7.68,10.42-8.11,10.4c-0.43-0.02-6.48,0.14-6.8-13.84
					C279.11,197.95,279.02,187.62,287.96,188.72z"/>
			</g>
			<g>
				<path class="st25" d="M291.16,208.47c0,0-0.25,4.7,0.19,5.73c0.44,1.02-5.86,4.26-9.78,0.57c0,0,0.79-5.14,0.55-6.96
					C281.88,206,291.16,208.47,291.16,208.47z"/>
			</g>
			<g>
				<path class="st25" d="M294.18,198.15c0,0,0.81-0.85,1.09,0.02c0.28,0.87-1.29,4.72-1.2,4.9c0,0-0.15,0.33-0.34,0.15
					C293.54,203.03,294.18,198.15,294.18,198.15z"/>
			</g>
			<g>
				<path class="st25" d="M279.2,197.84c0,0-0.77-0.88-1.09-0.02c-0.32,0.86,0.85,4.7,0.99,4.94c0,0,0.25,0.4,0.45,0.22
					C279.74,202.79,279.2,197.84,279.2,197.84z"/>
			</g>
			<g>
				<path class="st26" d="M294.64,197.18c-0.25,1.56-0.49,2.73-0.49,2.73l-1.06,1.39c0,0,0.06-3.07-0.1-3.55
					c-0.06-0.18-0.13-0.51-0.21-0.86c-0.12-0.58-0.25-1.23-0.33-1.45c-0.14-0.35-6.26-2.13-11.71,0.37c0,0,0.05,0.47,0.04,1
					c0,0.61-0.07,1.3-0.35,1.4c-0.52,0.19-0.3,3.59-0.3,3.59l-0.85-0.98c0,0-0.25-1.78-0.49-3.82c0,0,0,0,0-0.01
					c-0.05-0.48-0.11-0.97-0.16-1.45c-0.12-2.05,0.08-5.78,2.75-7.97c1.8-0.77,4.68-1.43,9.49,0.04c0,0,1.1,0.07,1.41,0.37
					C295.27,191.27,294.64,197.18,294.64,197.18z"/>
			</g>
			<path class="st27" d="M282.62,210.25c0,0,1.17,1.62,3.87,1.56c2.71-0.06,3.88-1.47,3.88-1.47s-1.28,2.68-3.89,2.65
				C283.87,212.96,282.62,210.25,282.62,210.25z"/>
			<path class="st25" d="M280.83,214.87c0,0,1.96,3.41,5.67,3.73c2.36,0.2,4.39-2.78,5.35-4.25
				C291.85,214.35,286.58,212.09,280.83,214.87z"/>
			<path class="st22" d="M291.17,213.27c0,0-1.49,1.96-4.67,4.05l1.98,3.05l3.37-6.02L291.17,213.27z"/>
			<path class="st22" d="M281.72,213.73c0,0,1.9,2.38,4.78,3.59l-2.17,3.14l-3.79-5.49L281.72,213.73z"/>
			<path class="st28" d="M286.5,217.32l1.69,2.58c0,0-1.78,1.01-3.43-0.06L286.5,217.32z"/>
			<path class="st34" d="M269.07,275.69c0,0,9.16,3.38,29.87,0.2l-0.28-3.75c0,0-12.01,3.54-29.23,0.51L269.07,275.69z"/>
			<path class="st13" d="M291.85,214.35c0,0-2.14,16-1.85,29.8c0.29,13.8,10.72,38.86,10.72,38.86s4.56-4.41,6.54-6.9
				c0,0-7.09-20.47-6.96-24.16c0.13-3.69,8-31.57,8-31.57S303.92,217.53,291.85,214.35z"/>
			<path class="st13" d="M280.35,215.03c0,0,0.02,15.32-0.28,29.12c-0.29,13.8-2.11,39.49-2.11,39.49s-10.2-1.62-12.19-4.11
				c0,0,4.13-23.89,4-27.58c-0.13-3.69-6.65-30.85-6.65-30.85S266.93,218.61,280.35,215.03z"/>
			<rect x="281.56" y="273.29" class="st37" width="5.63" height="4.18"/>
			<path class="st28" d="M285.71,219.25c0,0-2.51,8.58-2.73,25.62c-0.22,17.04,0.31,21.92,0.31,21.92l1.96,3.88l2.61-4.05
				c0,0-0.84-39.21-0.35-47.08L285.71,219.25z"/>
			<g>
				<g>
					<g>
						<g>
							<g>
								<path class="st9" d="M300.15,283.16c0,0,0.61-0.41,0.78-0.7c0,0,0.26-0.55,0.47-0.93c0.07-0.12,0.13-0.22,0.18-0.29
									c0.2-0.27,0.73-0.8,1.01-1.56c0.28-0.75,0.51-4.28,0.51-4.28l-2.16-0.63l-1.92-0.84c0,0-4.21,3.22-4.56,3.9
									c-0.03,0.07-0.06,0.13-0.09,0.2c-0.23,0.6-0.12,1.13-0.2,1.46c-0.03,0.12-0.23,1.33,0.06,1.6c0.39,0.37,0.84,0.49,1.24,0.43
									c0,0,0.81,0.7,1.57,0.76c0,0,0.72,0.67,1.7,0.51C298.75,282.78,299.56,283.38,300.15,283.16z"/>
							</g>
						</g>
					</g>
				</g>
			</g>
			<g>
				<path class="st13" d="M297.4,273.53c0,0,2.92,2.57,7.01,3.95c0,0,13.56-22.09,13.73-23.68c0.16-1.48-6.73-31.51-9.83-33.41
					l-5.64,16.52c0.37-0.11,6.42,12.55,6.44,14.18C309.13,253.26,297.4,273.53,297.4,273.53z"/>
			</g>
			<g>
				<path class="st13" d="M262.41,285.42c0,0-3.05,0.57-7.45,0.32c0,0,1.72-28.35,1.55-29.95c-0.16-1.47,3.53-32.79,6.64-34.69
					l5.54,16.69c-0.37-0.11-3.71,17.08-3.74,18.7C264.9,258.68,262.41,285.42,262.41,285.42z"/>
			</g>
			<polygon class="st36" points="293.85,276.67 302.56,281.19 299.13,287.53 291.72,279.6 			"/>
			<path class="st34" d="M289.14,327.83l-0.88,17.24l-1.65-13.73v0C287.55,330.07,288.41,328.89,289.14,327.83z"/>
		</g>
		<g>
			<rect x="245.3" y="118.29" class="st30" width="5.08" height="16.67"/>
		</g>
		<path class="st7" d="M432.55,229.35c0,12.96-10.5,23.56-23.56,23.56c-13.04,0-23.57-10.57-23.57-23.56
			c0-13.01,10.55-23.57,23.57-23.57C422,205.78,432.55,216.33,432.55,229.35z"/>
		<g>
			<rect x="236.96" y="122.97" class="st30" width="5.08" height="11.99"/>
		</g>
		<g>
			<rect x="253.63" y="110.57" class="st30" width="5.08" height="24.4"/>
		</g>
		<g>
			<g>
				
					<rect x="465.45" y="296.88" transform="matrix(-1 -1.224647e-16 1.224647e-16 -1 963.6016 595.7072)" class="st38" width="32.7" height="1.94"/>
			</g>
			<g>
				<rect x="490.9" y="303.88" class="st14" width="2.87" height="88.28"/>
			</g>
			<g>
				
					<rect x="447.84" y="296.33" transform="matrix(-1 -1.224647e-16 1.224647e-16 -1 918.4062 595.4386)" class="st39" width="22.73" height="2.77"/>
			</g>
			<g>
				
					<rect x="454.9" y="272.68" transform="matrix(-1 -1.224647e-16 1.224647e-16 -1 918.4062 571.504)" class="st40" width="8.61" height="26.14"/>
			</g>
			<g>
				
					<rect x="383.94" y="298.86" transform="matrix(-1 -1.224647e-16 1.224647e-16 -1 893.8242 602.7325)" class="st15" width="125.94" height="5.02"/>
			</g>
			<g>
				<path class="st41" d="M534.05,268.47c0,0,1.38,19.32-2.4,21.63c-2.36,1.45-11.79,6.33-11.51,7.25c0.28,0.92,5.32,8.15,5.32,8.15
					s18.11-11.92,18.69-15.68c0.57-3.67-0.89-28.28-3.38-29.42c-1.86-0.85-2.85-0.15-5.2,1.6
					C532.28,264.45,534.05,268.47,534.05,268.47z"/>
			</g>
			<g>
				<g>
					<g>
						<path class="st42" d="M511.77,380.1c0,0,0.56,3.91,0.63,4.5c0.07,0.59,6.26-0.35,6.26-0.35l0.5-4.65
							C519.17,379.6,512.55,379.55,511.77,380.1z"/>
					</g>
				</g>
			</g>
			<g>
				<g>
					<g>
						<path class="st36" d="M512.34,384.1c0,0-1.96,2.36-3.86,3.38c-1.9,1.03-4.88,1.43-6,2.5c-0.81,0.77-2.95,4.07,4.93,4
							c7.88-0.07,11.68,0.47,12.53-0.8c0.84-1.27-1.22-9.34-1.22-9.34S516.85,384.51,512.34,384.1z"/>
					</g>
				</g>
			</g>
			<g>
				<g>
					<g>
						<path class="st42" d="M472.09,380.14c0,0,0.56,3.91,0.63,4.49c0.07,0.59,6.26-0.35,6.26-0.35l0.5-4.65
							C479.49,379.64,472.87,379.59,472.09,380.14z"/>
					</g>
				</g>
			</g>
			<g>
				<g>
					<g>
						<path class="st36" d="M472.66,384.14c0,0-1.96,2.36-3.86,3.38c-1.9,1.03-8.88,1.87-10,2.93c-0.81,0.77-2.16,3.85,8.93,3.57
							c7.88-0.21,11.68,0.47,12.53-0.8c0.85-1.27-1.22-9.34-1.22-9.34S477.28,384.59,472.66,384.14z"/>
					</g>
				</g>
			</g>
			<g>
				<g>
					<g>
						<path class="st36" d="M531.75,312.59c0,0-22.52,3.81-27.6,4.61c-5.09,0.8-32.66,7.66-36.11,9.75
							c-2.75,1.66,1.44,41.64,2.42,56.89h10.86l0.79-45.75c13.03,0.33,22.34-3.05,31.83-1.61c9.49,1.44,17.4,3.49,23.43-4.6
							C537.36,331.88,537.59,314.36,531.75,312.59z"/>
					</g>
				</g>
			</g>
			<g>
				<g>
					<g>
						<path class="st36" d="M509.56,383.87l10.58-0.66l1.03-45.13c5.61,0.14,7.53-0.22,12.08-0.77l8.54-19.87
							c-7.49,1.5-31.49,7.55-34.69,9.49C504.36,328.61,508.58,368.62,509.56,383.87z"/>
					</g>
				</g>
			</g>
			<g>
				<g>
					<g>
						<path class="st9" d="M521.38,228.19c0,0-8.25-2.28-11.4,4.13c-3.15,6.41-1.72,18.56,2.44,19.7
							c4.16,1.14,10.14-0.17,11.87-4.16c1.73-3.99,3.1-9.66,2.69-13.33C526.57,230.85,523.58,229.06,521.38,228.19z"/>
					</g>
				</g>
			</g>
			<g>
				<g>
					<g>
						<path class="st9" d="M514.58,250.73c0,0,0.09,4.87-0.45,5.91c-0.54,1.04,11.49,0.78,11.49,0.78s-1.9-5.85-0.82-10.84
							C525.87,241.65,514.58,250.73,514.58,250.73z"/>
					</g>
				</g>
			</g>
			<g>
				<g>
					<g>
						<path class="st43" d="M525.45,244.74c0,0-0.64,1.31-3.76,1.1c-3.11-0.21-7.22-3.97-8.54-4.3c-1.32-0.33-1.4-1.09-1.4-1.09
							l-0.7,1.24l-1.35,0.21c0,0,0.92-3.77-1.09-5.09c-2.01-1.33,0.9-12,11.06-9.43c0,0,7.75,1.42,7.85,5.75
							C527.63,237.45,526.96,242.45,525.45,244.74z"/>
					</g>
				</g>
			</g>
			<g>
				<g>
					<g>
						<path class="st38" d="M513.5,256.52c0,0,0.03-1.99,0.93-2.18c0.9-0.19,9.46-1.37,10.56-0.93l0.47,2.62
							C525.47,256.03,523.34,257.34,513.5,256.52z"/>
					</g>
				</g>
			</g>
			<g>
				<g>
					<g>
						<path class="st9" d="M511.02,239.56c0.23-1.63,2.08-3.5,3.14-0.96c1.06,2.53-0.71,6.22-1.9,6.03
							C511.07,244.42,510.71,241.76,511.02,239.56z"/>
					</g>
				</g>
			</g>
			<g>
				<g>
					<g>
						<path class="st13" d="M477.65,279.97c0,0,0.01,0,0.01,0C477.61,280,477.6,280,477.65,279.97z"/>
					</g>
				</g>
			</g>
			<g>
				<g>
					<g>
						<path class="st43" d="M523.79,229.35c0,0,10.06-0.47,1.76,15.24L523.79,229.35z"/>
					</g>
				</g>
			</g>
			<g>
				<g>
					<polygon class="st16" points="546.22,389.23 545.47,391.33 513.83,381.53 515.35,377.27 					"/>
				</g>
			</g>
			<g>
				<g>
					
						<rect x="512.75" y="345.64" transform="matrix(-1 -1.224647e-16 1.224647e-16 -1 1029.0938 725.67)" class="st16" width="3.6" height="34.39"/>
				</g>
			</g>
			<g>
				<g>
					
						<rect x="503.94" y="343.81" transform="matrix(-1 -1.224647e-16 1.224647e-16 -1 1029.0936 689.6485)" class="st44" width="21.21" height="2.03"/>
				</g>
			</g>
			<g>
				<g>
					<polygon class="st16" points="482.6,389.23 483.35,391.33 514.98,381.53 513.59,377 					"/>
				</g>
			</g>
			<g>
				<g>
					<polygon class="st16" points="504.89,391.11 504.89,393.56 514.98,381.53 513.59,377 					"/>
				</g>
			</g>
			<g>
				<g>
					<path class="st23" d="M479.64,392.16c0,1.63,1.32,2.96,2.96,2.96c1.63,0,2.96-1.32,2.96-2.96c0-1.63-1.32-2.96-2.96-2.96
						C480.97,389.2,479.64,390.52,479.64,392.16z"/>
				</g>
			</g>
			<g>
				<g>
					<path class="st23" d="M504.64,392.16c0,1.63,1.32,2.96,2.96,2.96c1.63,0,2.96-1.32,2.96-2.96c0-1.63-1.32-2.96-2.96-2.96
						C505.96,389.2,504.64,390.52,504.64,392.16z"/>
				</g>
			</g>
			<g>
				<g>
					<path class="st23" d="M543.26,392.16c0,1.63,1.32,2.96,2.96,2.96s2.96-1.32,2.96-2.96c0-1.63-1.32-2.96-2.96-2.96
						S543.26,390.52,543.26,392.16z"/>
				</g>
			</g>
			<g>
				<path class="st38" d="M493.08,343.81h42.66c2.09,0,3.79-1.7,3.79-3.79v-0.1c0-2.09-1.7-3.79-3.79-3.79h-42.66
					c-2.09,0-3.79,1.7-3.79,3.79v0.1C489.29,342.11,490.98,343.81,493.08,343.81z"/>
			</g>
			<g>
				
					<rect x="400.06" y="303.88" transform="matrix(-1 -1.224647e-16 1.224647e-16 -1 802.9756 696.0323)" class="st14" width="2.86" height="88.28"/>
			</g>
			<g>
				<path class="st45" d="M425.82,285.27h66.76c2.09,0,3.78-1.69,3.78-3.78v-44.87c0-2.09-1.69-3.78-3.78-3.78h-66.76
					c-2.09,0-3.78,1.69-3.78,3.78v44.87C422.04,283.58,423.73,285.27,425.82,285.27z"/>
			</g>
			<g>
				
					<rect x="424.95" y="235.68" transform="matrix(-1 -1.224647e-16 1.224647e-16 -1 918.4063 512.7335)" class="st29" width="68.5" height="41.38"/>
			</g>
			<g>
				
					<rect x="424.95" y="235.68" transform="matrix(-1 -1.224647e-16 1.224647e-16 -1 918.4063 474.6446)" class="st46" width="68.5" height="3.29"/>
			</g>
			<g>
				<path class="st46" d="M429.82,274.51h3.58c1.29,0,2.34-1.05,2.34-2.34v-28.38c0-1.29-1.05-2.34-2.34-2.34h-3.58
					c-1.29,0-2.34,1.05-2.34,2.34v28.38C427.48,273.46,428.53,274.51,429.82,274.51z"/>
			</g>
			<g>
				<path class="st46" d="M477.71,244.51h12.54c0.7,0,1.26-0.57,1.26-1.26v-0.54c0-0.7-0.57-1.26-1.26-1.26h-12.54
					c-0.7,0-1.26,0.57-1.26,1.26v0.54C476.45,243.94,477.02,244.51,477.71,244.51z"/>
			</g>
			<g>
				<path class="st46" d="M479.06,275.35h9.85c1.44,0,2.61-1.17,2.61-2.61v-23.57c0-1.44-1.17-2.61-2.61-2.61h-9.85
					c-1.44,0-2.61,1.17-2.61,2.61v23.57C476.45,274.19,477.62,275.35,479.06,275.35z"/>
			</g>
			<g>
				<path class="st47" d="M456.81,280.92c0,1.32,1.07,2.4,2.4,2.4c1.32,0,2.4-1.07,2.4-2.4c0-1.32-1.07-2.4-2.4-2.4
					C457.88,278.52,456.81,279.6,456.81,280.92z"/>
			</g>
			<g>
				<path class="st48" d="M443.82,298.92v-0.93c0,0,1.31-5.8,10.59-5.8c9.28,0,9.09,6.74,9.09,6.74H443.82z"/>
			</g>
			<g>
				<g>
					<path class="st9" d="M463.61,293.05c0,0-2.02-0.16-2.75-0.6c-0.74-0.45-5.16-3.42-6.19-2.94c-1.04,0.48-7.94,2.59-7.71,3.6
						c0.24,1.01,0.88,0.91,1.37,0.73c0.49-0.18,5.5-1.23,5.95-1.05c0,0-4.93,1.8-4.95,3.11c-0.02,1.31,1.03,1.63,1.5,2.13
						s1.03,1.73,2.3,1.82c1.27,0.09,7.46-2.06,8.74-2.16c1.28-0.1,3.64,0.08,3.8-0.13C465.81,297.35,463.61,293.05,463.61,293.05z"
						/>
				</g>
			</g>
			<g>
				<g>
					<g>
						<path class="st41" d="M500.31,259.27c6.43-1.13,13.19-2.75,13.19-2.75l11.97-0.49c0,0,10.99,2.42,15.31,4.37
							c0.41,0.19,0.41,9.8,1.54,12.32l-3.59,7.57c0,0-2.07,14.99-2.5,21.66c-0.2,3.06,0.56,29.58,0.56,29.58s-1.08,0.53-9.24,1.43
							c-8.17,0.9-28.58-0.33-28.71-1.29c-0.13-0.97,3.95-35.93,4.13-37.74c0.28-2.78-0.8-15.62-0.8-15.62
							c-1.54,2.07-5.46,11.4-9.55,15.85c-2.41,2.61-14.32,4.22-16.56,4.29c-4.89,0.16-13.8,1.14-14.07,0.66
							c-0.21-0.29-0.78-7.91-0.22-8.1c0.49-0.16,17.05-1.12,21.29-3.37c1.55-0.82,6.19-10.94,6.19-10.94
							S496.76,260.86,500.31,259.27z"/>
					</g>
				</g>
			</g>
			<g>
				<path class="st38" d="M523.89,330.76h20.09c4.02,0,7.28-3.26,7.28-7.28v-33.43c0-4.02-3.26-7.28-7.28-7.28h-20.09
					c-4.02,0-7.28,3.26-7.28,7.28v33.43C516.62,327.5,519.88,330.76,523.89,330.76z"/>
			</g>
			<g>
				<path class="st38" d="M522.76,341.9c5.11,0,9.25-1.71,12.32-5.1c6.93-7.65,5.68-21.09,5.62-21.66
					c-0.11-1.06-1.05-1.83-2.11-1.73c-1.06,0.1-1.83,1.05-1.73,2.11c0.02,0.15,1.12,12.34-4.65,18.7c-2.33,2.57-5.43,3.82-9.45,3.82
					c-1.06,0-1.93,0.86-1.93,1.93C520.83,341.04,521.69,341.9,522.76,341.9z"/>
			</g>
			<g>
				<path class="st7" d="M460.2,252.59c0,2.37-0.85,4.54-2.27,6.22c-0.33,0.39-0.69,0.76-1.08,1.1c-0.11,0.1-0.22,0.19-0.34,0.28
					c-0.13,0.1-0.26,0.2-0.4,0.3c-1.27,0.9-2.78,1.5-4.4,1.7c-0.29,0.04-0.58,0.06-0.87,0.07c-0.11,0-0.21,0-0.32,0
					c-0.31,0-0.62-0.02-0.93-0.04c-0.34-0.03-0.68-0.08-1.01-0.15c-1.46-0.3-2.81-0.93-3.96-1.81c-0.34-0.26-0.67-0.55-0.98-0.86
					c-0.06-0.06-0.12-0.12-0.18-0.18c-0.22-0.23-0.42-0.47-0.62-0.72c-1.27-1.64-2.02-3.69-2.02-5.92c0-5.34,4.33-9.68,9.68-9.68
					C455.86,242.91,460.2,247.25,460.2,252.59z"/>
				<g>
					<g>
						<path class="st24" d="M456.82,257.93l-0.71,2.56c-1.27,0.9-2.78,1.5-4.4,1.7c-0.29,0.04-0.58,0.06-0.87,0.07
							c-0.11,0-0.21,0-0.32,0c-0.31,0-0.62-0.02-0.93-0.04c-0.34-0.03-0.68-0.08-1.01-0.15c-1.46-0.3-2.81-0.93-3.96-1.81
							c-0.14-0.85-0.28-1.78-0.41-2.66c0.71-0.27,2.97-1.04,4.4-1.52c0.02-0.01,0.04-0.01,0.06-0.02c0.03-0.01,0.06-0.02,0.09-0.03
							c0.08-0.03,0.17-0.06,0.24-0.08c0.08-0.03,0.15-0.05,0.22-0.08c0.29-0.1,0.5-0.17,0.57-0.19c0,0,0,0,0,0
							c0.02-0.01,0.03-0.01,0.03-0.01l0.02,0l1.92,0.14l0.32,0.02l0.1,0.01c0,0,0.01,0,0.04,0.01c0.12,0.03,0.45,0.12,0.9,0.25
							c0,0,0,0,0,0C454.28,256.47,456.13,257.13,456.82,257.93z"/>
					</g>
					<g>
						<path class="st25" d="M451.03,247.79c0,0,2.3,0.39,1.91,4c-0.39,3.61-2.42,3.29-2.56,3.28c-0.13-0.01-2.04,0.04-2.15-4.37
							C448.23,250.7,448.2,247.44,451.03,247.79z"/>
					</g>
					<g>
						<path class="st25" d="M452.03,254.02c0,0-0.08,1.48,0.06,1.81c0.14,0.32-1.85,1.34-3.09,0.18c0,0,0.25-1.62,0.17-2.2
							C449.1,253.24,452.03,254.02,452.03,254.02z"/>
					</g>
					<g>
						<path class="st25" d="M452.98,250.76c0,0,0.26-0.27,0.35,0.01c0.09,0.27-0.41,1.49-0.38,1.54c0,0-0.05,0.11-0.11,0.05
							C452.79,252.3,452.98,250.76,452.98,250.76z"/>
					</g>
					<g>
						<path class="st25" d="M448.26,250.66c0,0-0.24-0.28-0.34-0.01c-0.1,0.27,0.27,1.48,0.31,1.56c0,0,0.08,0.12,0.14,0.07
							C448.43,252.23,448.26,250.66,448.26,250.66z"/>
					</g>
					<g>
						<path class="st26" d="M453.13,250.46c-0.08,0.49-0.15,0.86-0.15,0.86l-0.33,0.44c0,0,0.02-0.97-0.03-1.12
							c-0.02-0.06-0.04-0.16-0.07-0.27c-0.04-0.18-0.08-0.39-0.1-0.46c-0.04-0.11-1.97-0.67-3.69,0.12c0,0,0.01,0.15,0.01,0.32
							c0,0.19-0.02,0.41-0.11,0.44c-0.16,0.06-0.1,1.13-0.1,1.13l-0.27-0.31c0,0-0.08-0.56-0.15-1.2c0,0,0,0,0,0
							c-0.02-0.15-0.04-0.3-0.05-0.46c-0.04-0.65,0.03-1.82,0.87-2.52c0.57-0.24,1.48-0.45,2.99,0.01c0,0,0.35,0.02,0.45,0.12
							C453.33,248.59,453.13,250.46,453.13,250.46z"/>
					</g>
					<path class="st27" d="M449.34,254.58c0,0,0.37,0.51,1.22,0.49c0.85-0.02,1.23-0.46,1.23-0.46s-0.4,0.85-1.23,0.84
						C449.73,255.44,449.34,254.58,449.34,254.58z"/>
					<path class="st25" d="M448.77,256.04c0,0,0.62,1.08,1.79,1.18c0.74,0.06,1.39-0.88,1.69-1.34
						C452.25,255.87,450.59,255.16,448.77,256.04z"/>
					<path class="st22" d="M452.04,255.53c0,0-0.47,0.62-1.47,1.28l0.62,0.96l1.06-1.9L452.04,255.53z"/>
					<path class="st22" d="M449.06,255.68c0,0,0.6,0.75,1.51,1.13l-0.68,0.99l-1.2-1.73L449.06,255.68z"/>
					<path class="st28" d="M450.56,256.81l0.54,0.81c0,0-0.56,0.32-1.08-0.02L450.56,256.81z"/>
					<path class="st13" d="M457.44,257.78c-0.01,0.03-0.58,2.1-0.59,2.13c-0.11,0.1-0.22,0.19-0.34,0.28c-0.13,0.1-0.26,0.2-0.4,0.3
						c-1.27,0.9-2.78,1.5-4.4,1.7c0.14-3.35,0.54-6.32,0.54-6.32c0.31,0.08,0.61,0.16,0.89,0.25c0,0,0,0,0,0
						C454.17,256.41,456.52,257.17,457.44,257.78z"/>
					<path class="st13" d="M448.59,262.07c-1.46-0.3-2.81-0.93-3.96-1.81c-0.34-0.26-0.67-0.55-0.98-0.86
						c-0.06-0.06-0.12-0.12-0.18-0.18c-0.17-0.72-0.28-1.19-0.29-1.22v0c0,0,1.2-0.79,5.43-1.92c0,0,0,0,0,0
						C448.62,256.19,448.62,258.9,448.59,262.07z"/>
					<path class="st28" d="M450.87,257.71c-0.04,0.88-0.04,2.59-0.03,4.55c-0.11,0-0.21,0-0.32,0c-0.31,0-0.62-0.02-0.93-0.04
						c0.19-2.41,0.5-3.91,0.64-4.51c0.05-0.2,0.08-0.29,0.08-0.29l0.57,0.09C450.88,257.57,450.87,257.64,450.87,257.71z"/>
					<g>
						<path class="st13" d="M457.93,258.81c-0.33,0.39-0.69,0.76-1.08,1.1c-0.11,0.1-0.22,0.19-0.34,0.28c0,0,0.93-2.41,0.93-2.41
							C457.68,257.92,457.82,258.56,457.93,258.81z"/>
					</g>
					<g>
						<path class="st13" d="M443.66,259.41c-0.06-0.06-0.12-0.12-0.18-0.18c-0.22-0.23-0.42-0.47-0.62-0.72
							c0.11-0.26,0.22-0.44,0.33-0.5v0L443.66,259.41z"/>
					</g>
				</g>
			</g>
		</g>
		<g>
			<path class="st49" d="M408.98,238.74c-0.66,0-1.19-0.53-1.19-1.19v-16.42c0-0.66,0.53-1.19,1.19-1.19c0.66,0,1.19,0.53,1.19,1.19
				v16.42C410.17,238.21,409.64,238.74,408.98,238.74z"/>
		</g>
		<g>
			<path class="st49" d="M417.19,230.53h-16.42c-0.66,0-1.19-0.53-1.19-1.19c0-0.66,0.53-1.19,1.19-1.19h16.42
				c0.66,0,1.19,0.53,1.19,1.19C418.38,230,417.85,230.53,417.19,230.53z"/>
		</g>
	</g>
</g>
</svg>
