<?xml version="1.0" encoding="utf-8"?>
<!-- Generator: Adobe Illustrator 25.2.0, SVG Export Plug-In . SVG Version: 6.00 Build 0)  -->
<svg version="1.1" xmlns="http://www.w3.org/2000/svg" xmlns:xlink="http://www.w3.org/1999/xlink" x="0px" y="0px"
	 viewBox="0 0 750 500" style="enable-background:new 0 0 750 500;" xml:space="preserve">
<style type="text/css">
	.st0{fill:#E0E0E0;}
	.st1{fill:#F5F5F5;}
	.st2{fill:#EBEBEB;}
	.st3{fill:#FFFFFF;}
	.st4{fill:#FAFAFA;}
	.st5{display:none;}
	.st6{display:inline;fill:#F5F5F5;}
	.st7{fill:#263238;}
	.st8{fill:#FF725E;}
	.st9{opacity:0.3;}
	.st10{fill:#455A64;}
	.st11{fill:#FFBF9D;}
	.st12{fill:#FF9A6C;}
</style>
<g id="Background_Complete">
	<g>
		<g>
			<g>
				<g>
					<rect x="159.37" y="49.19" class="st0" width="7.15" height="153.76"/>
				</g>
			</g>
		</g>
		<g>
			<g>
				<g>
					<path class="st1" d="M55.64,50.48v152.57c0,0.06,0.05,0.1,0.1,0.1h102.44c0.06,0,0.1-0.05,0.1-0.1V50.48
						c0-0.06-0.05-0.1-0.1-0.1H55.74C55.68,50.38,55.64,50.42,55.64,50.48z"/>
				</g>
			</g>
		</g>
		<g>
			<g>
				<g>
					<g>
						<path class="st2" d="M159.37,204.35H54.55c-0.06,0-0.1-0.05-0.1-0.1V49.29c0-0.06,0.05-0.1,0.1-0.1h104.82
							c0.06,0,0.1,0.05,0.1,0.1v154.95C159.48,204.3,159.43,204.35,159.37,204.35z M56.93,201.97h100.06c0.06,0,0.1-0.05,0.1-0.1
							V51.67c0-0.06-0.05-0.1-0.1-0.1H56.93c-0.06,0-0.1,0.05-0.1,0.1v150.2C56.83,201.92,56.87,201.97,56.93,201.97z"/>
					</g>
				</g>
			</g>
		</g>
		<g>
			<g>
				<g>
					<path class="st3" d="M65.97,59.9v133.62c0,0.06,0.05,0.1,0.1,0.1h81.95c0.06,0,0.1-0.05,0.1-0.1V59.9c0-0.06-0.05-0.1-0.1-0.1
						H66.08C66.02,59.8,65.97,59.85,65.97,59.9z"/>
				</g>
			</g>
		</g>
		<g>
			<g>
				<g>
					<path class="st2" d="M129.96,151.81h-46c-0.04,0-0.06-0.03-0.06-0.06V97.81c0-0.04,0.03-0.06,0.06-0.06h46
						c0.04,0,0.06,0.03,0.06,0.06v53.94C130.03,151.78,130,151.81,129.96,151.81z"/>
				</g>
			</g>
		</g>
		<g>
			<g>
				<g>
					<g>
						<path class="st0" d="M126.38,145.19c0.06,0.17-2.22,1.17-6.55,0.66c-2.13-0.29-4.79-1.06-7.36-2.94
							c-2.52-1.89-4.91-4.93-5.72-9c-0.84-4.04,0.51-9.07,4.38-12.3c0.96-0.8,2.08-1.48,3.32-1.94c1.32-0.49,2.74-0.65,4.15-0.48
							c1.4,0.17,2.89,0.66,4.15,1.81c1.27,1.15,1.97,3.1,1.64,4.83c-0.3,1.75-1.25,3.09-2.28,4.15c-1.06,1.08-2.25,1.88-3.48,2.56
							c-2.48,1.37-5.32,2.23-8.29,2.37c-2.96,0.14-6.09-0.47-8.84-2.01c-2.72-1.53-5.05-3.84-6.5-6.74
							c-1.47-2.86-1.94-6.33-1.17-9.44c0.75-3.09,2.51-5.86,4.98-7.78c1.24-0.96,2.64-1.67,4.17-2.11c1.54-0.4,3.13-0.47,4.7-0.15
							c1.55,0.33,3.13,1.09,4.26,2.4c1.14,1.3,1.66,3.01,1.67,4.55c0.02,1.55-0.4,3.07-1.11,4.34c-0.7,1.27-1.64,2.3-2.63,3.16
							c-2,1.69-4.24,2.8-6.54,3.47c-2.3,0.66-4.66,0.83-6.88,0.53c-2.21-0.31-4.3-1.13-5.98-2.29c-3.4-2.31-5.36-5.81-5.71-9.05
							c-0.39-3.3,0.82-6,2.12-7.76c1.33-1.79,2.86-2.71,3.92-3.13c1.08-0.41,1.69-0.39,1.72-0.29c0.05,0.15-0.49,0.38-1.36,0.97
							c-0.86,0.59-2.07,1.6-3.05,3.27c-0.96,1.64-1.75,4.03-1.25,6.63c0.46,2.59,2.23,5.37,5.08,7.12c2.79,1.78,6.72,2.23,10.48,1
							c1.87-0.6,3.73-1.61,5.24-2.97c1.51-1.35,2.54-3.09,2.45-4.92c-0.05-1.83-1.2-3.11-3.16-3.49c-0.95-0.19-2.02-0.13-3.02,0.14
							c-0.98,0.3-1.98,0.8-2.85,1.49c-1.74,1.37-3.06,3.45-3.59,5.72c-0.55,2.27-0.22,4.67,0.88,6.86c1.08,2.18,2.89,3.99,4.96,5.16
							c2.06,1.18,4.47,1.68,6.83,1.59c2.37-0.08,4.69-0.75,6.72-1.84c1.02-0.55,1.97-1.18,2.68-1.89c0.73-0.71,1.24-1.53,1.36-2.22
							c0.13-0.7-0.08-1.3-0.55-1.78c-0.49-0.49-1.33-0.86-2.22-0.98c-0.89-0.14-1.81-0.05-2.62,0.22c-0.88,0.3-1.71,0.76-2.44,1.34
							c-1.46,1.15-2.56,2.72-3.18,4.38c-0.63,1.66-0.77,3.39-0.54,5.03c0.49,3.3,2.35,6.03,4.4,7.79c2.09,1.77,4.4,2.68,6.32,3.15
							C124,145.31,126.35,144.86,126.38,145.19z"/>
					</g>
				</g>
			</g>
		</g>
	</g>
	<g>
		<g>
			<g>
				<g>
					<g>
						<g>
							<g>
								<g>
									<g>
										<g>
											<rect x="620.28" y="61.73" class="st0" width="81.66" height="85.13"/>
										</g>
									</g>
								</g>
							</g>
						</g>
					</g>
				</g>
			</g>
		</g>
		<g>
			<g>
				<g>
					<g>
						<g>
							<g>
								<g>
									<g>
										<g>
											<rect x="614.75" y="61.73" class="st4" width="81.66" height="85.13"/>
										</g>
									</g>
								</g>
							</g>
						</g>
					</g>
				</g>
			</g>
			<g>
				<g>
					<g>
						<g>
							<g>
								<g>
									<g>
										<g>
											<path class="st0" d="M696.44,146.89h-81.71V61.71h81.71V146.89z M614.78,146.83h81.61V61.76h-81.61V146.83z"/>
										</g>
									</g>
								</g>
							</g>
						</g>
					</g>
				</g>
			</g>
		</g>
		<g>
			<g>
				<g>
					<g>
						<g>
							<g>
								<g>
									<g>
										<g>
											<rect x="625.73" y="73.18" class="st3" width="59.71" height="62.24"/>
										</g>
									</g>
								</g>
							</g>
						</g>
					</g>
				</g>
			</g>
		</g>
		<g>
			<g>
				<g>
					<g>
						<g>
							<g>
								<g>
									<g>
										<g>
											<g>
												<path class="st0" d="M625.73,135.83c0.05,0.06-0.52,0.71-1.47,1.71c-0.95,1.01-2.29,2.37-3.8,3.85
													c-1.5,1.48-2.88,2.8-3.9,3.73c-1.02,0.94-1.67,1.49-1.73,1.44c-0.05-0.05,0.51-0.7,1.47-1.71
													c0.95-1.01,2.3-2.37,3.8-3.86c1.51-1.48,2.89-2.8,3.91-3.74C625.03,136.32,625.68,135.77,625.73,135.83z"/>
											</g>
										</g>
									</g>
								</g>
							</g>
						</g>
					</g>
				</g>
			</g>
		</g>
		<g>
			<g>
				<g>
					<g>
						<g>
							<g>
								<g>
									<g>
										<g>
											<g>
												<path class="st0" d="M685.44,135.68c0.06-0.05,0.71,0.52,1.71,1.47c1.01,0.95,2.37,2.29,3.85,3.8
													c1.48,1.5,2.8,2.88,3.73,3.9c0.94,1.02,1.49,1.67,1.44,1.73c-0.05,0.05-0.7-0.51-1.71-1.47
													c-1.01-0.95-2.37-2.3-3.86-3.8c-1.48-1.51-2.8-2.89-3.74-3.91C685.93,136.38,685.38,135.72,685.44,135.68z"/>
											</g>
										</g>
									</g>
								</g>
							</g>
						</g>
					</g>
				</g>
			</g>
		</g>
		<g>
			<g>
				<g>
					<g>
						<g>
							<g>
								<g>
									<g>
										<g>
											<g>
												<path class="st0" d="M685.27,73.34c-0.05-0.06,0.52-0.71,1.47-1.71c0.95-1.01,2.29-2.37,3.8-3.85
													c1.5-1.48,2.88-2.8,3.9-3.73c1.02-0.94,1.67-1.49,1.73-1.44c0.05,0.05-0.51,0.7-1.47,1.71c-0.95,1.01-2.3,2.37-3.8,3.86
													c-1.51,1.48-2.89,2.8-3.91,3.74C685.97,72.85,685.32,73.4,685.27,73.34z"/>
											</g>
										</g>
									</g>
								</g>
							</g>
						</g>
					</g>
				</g>
			</g>
		</g>
		<g>
			<g>
				<g>
					<g>
						<g>
							<g>
								<g>
									<g>
										<g>
											<g>
												<path class="st0" d="M625.57,73.5c-0.06,0.05-0.71-0.52-1.71-1.47c-1.01-0.95-2.37-2.29-3.85-3.8
													c-1.48-1.5-2.8-2.88-3.73-3.9c-0.94-1.02-1.49-1.67-1.44-1.73c0.05-0.05,0.7,0.51,1.71,1.47
													c1.01,0.95,2.37,2.3,3.86,3.8c1.48,1.51,2.8,2.89,3.74,3.91C625.07,72.8,625.62,73.45,625.57,73.5z"/>
											</g>
										</g>
									</g>
								</g>
							</g>
						</g>
					</g>
				</g>
			</g>
		</g>
		<g>
			<g>
				<g>
					<g>
						<g>
							<g>
								<g>
									<g>
										<g>
											<g>
												<path class="st0" d="M685.27,135.42c0,0-0.01-0.11-0.01-0.3c0-0.21-0.01-0.5-0.01-0.87c-0.01-0.78-0.02-1.9-0.03-3.36
													c-0.01-2.95-0.03-7.24-0.06-12.68c-0.03-10.9-0.07-26.43-0.12-45.02l0.23,0.23c-17.38,0.01-37.79,0.02-59.54,0.03h-0.01
													l0.26-0.26c-0.01,22.84-0.03,44.22-0.04,62.24l-0.23-0.23c17.84,0.05,32.7,0.09,43.11,0.12
													c5.2,0.03,9.3,0.05,12.11,0.06c1.39,0.01,2.46,0.02,3.2,0.03c0.35,0.01,0.62,0.01,0.83,0.01
													C685.17,135.41,685.27,135.41,685.27,135.42c0,0-0.08,0.01-0.26,0.01c-0.2,0-0.46,0.01-0.8,0.01
													c-0.73,0.01-1.79,0.01-3.16,0.03c-2.8,0.01-6.88,0.03-12.06,0.06c-10.45,0.03-25.36,0.07-43.26,0.12l-0.23,0l0-0.23
													c-0.01-18.02-0.02-39.4-0.04-62.24l0-0.26h0.26h0.01c21.74,0.01,42.16,0.02,59.54,0.03h0.23l0,0.23
													c-0.05,18.66-0.09,34.24-0.12,45.17c-0.03,5.42-0.05,9.7-0.06,12.63c-0.01,1.44-0.02,2.55-0.03,3.32
													c-0.01,0.36-0.01,0.64-0.01,0.84C685.28,135.33,685.28,135.42,685.27,135.42z"/>
											</g>
										</g>
									</g>
								</g>
							</g>
						</g>
					</g>
				</g>
			</g>
		</g>
		<g>
			<g>
				<g>
					<g>
						<g>
							<g>
								<g>
									<g>
										<g>
											<rect x="645.62" y="94.33" class="st2" width="19.92" height="19.92"/>
										</g>
									</g>
								</g>
							</g>
						</g>
					</g>
				</g>
			</g>
		</g>
	</g>
	<g>
		<g>
			<g>
				<g>
					<g>
						<g>
							<g>
								<g>
									<g>
										<g>
											<rect x="620.28" y="176.63" class="st0" width="81.66" height="85.13"/>
										</g>
									</g>
								</g>
							</g>
						</g>
					</g>
				</g>
			</g>
		</g>
		<g>
			<g>
				<g>
					<g>
						<g>
							<g>
								<g>
									<g>
										<g>
											<rect x="614.75" y="176.63" class="st4" width="81.66" height="85.13"/>
										</g>
									</g>
								</g>
							</g>
						</g>
					</g>
				</g>
			</g>
			<g>
				<g>
					<g>
						<g>
							<g>
								<g>
									<g>
										<g>
											<path class="st0" d="M696.44,261.78h-81.71V176.6h81.71V261.78z M614.78,261.73h81.61v-85.08h-81.61V261.73z"/>
										</g>
									</g>
								</g>
							</g>
						</g>
					</g>
				</g>
			</g>
		</g>
		<g>
			<g>
				<g>
					<g>
						<g>
							<g>
								<g>
									<g>
										<g>
											<rect x="625.73" y="188.07" class="st3" width="59.71" height="62.24"/>
										</g>
									</g>
								</g>
							</g>
						</g>
					</g>
				</g>
			</g>
		</g>
		<g>
			<g>
				<g>
					<g>
						<g>
							<g>
								<g>
									<g>
										<g>
											<g>
												<path class="st0" d="M625.73,250.72c0.05,0.06-0.52,0.71-1.47,1.71c-0.95,1.01-2.29,2.37-3.8,3.85
													c-1.5,1.48-2.88,2.8-3.9,3.73c-1.02,0.94-1.67,1.49-1.73,1.44c-0.05-0.05,0.51-0.7,1.47-1.71
													c0.95-1.01,2.3-2.37,3.8-3.86c1.51-1.48,2.89-2.81,3.91-3.74C625.03,251.22,625.68,250.67,625.73,250.72z"/>
											</g>
										</g>
									</g>
								</g>
							</g>
						</g>
					</g>
				</g>
			</g>
		</g>
		<g>
			<g>
				<g>
					<g>
						<g>
							<g>
								<g>
									<g>
										<g>
											<g>
												<path class="st0" d="M685.44,250.57c0.06-0.05,0.71,0.52,1.71,1.47c1.01,0.95,2.37,2.29,3.85,3.8
													c1.48,1.5,2.8,2.88,3.73,3.9c0.94,1.02,1.49,1.67,1.44,1.73c-0.05,0.05-0.7-0.51-1.71-1.47
													c-1.01-0.95-2.37-2.3-3.86-3.8c-1.48-1.51-2.8-2.89-3.74-3.91C685.93,251.27,685.38,250.62,685.44,250.57z"/>
											</g>
										</g>
									</g>
								</g>
							</g>
						</g>
					</g>
				</g>
			</g>
		</g>
		<g>
			<g>
				<g>
					<g>
						<g>
							<g>
								<g>
									<g>
										<g>
											<g>
												<path class="st0" d="M685.27,188.23c-0.05-0.06,0.52-0.71,1.47-1.71c0.95-1.01,2.29-2.37,3.8-3.85
													c1.5-1.48,2.88-2.8,3.9-3.73c1.02-0.94,1.67-1.49,1.73-1.44c0.05,0.05-0.51,0.7-1.47,1.71c-0.95,1.01-2.3,2.37-3.8,3.86
													c-1.51,1.48-2.89,2.8-3.91,3.74C685.97,187.74,685.32,188.29,685.27,188.23z"/>
											</g>
										</g>
									</g>
								</g>
							</g>
						</g>
					</g>
				</g>
			</g>
		</g>
		<g>
			<g>
				<g>
					<g>
						<g>
							<g>
								<g>
									<g>
										<g>
											<g>
												<path class="st0" d="M625.57,188.39c-0.06,0.05-0.71-0.52-1.71-1.47c-1.01-0.95-2.37-2.29-3.85-3.8
													c-1.48-1.5-2.8-2.88-3.73-3.9c-0.94-1.02-1.49-1.67-1.44-1.73c0.05-0.05,0.7,0.51,1.71,1.47
													c1.01,0.95,2.37,2.3,3.86,3.8c1.48,1.51,2.8,2.89,3.74,3.91C625.07,187.69,625.62,188.34,625.57,188.39z"/>
											</g>
										</g>
									</g>
								</g>
							</g>
						</g>
					</g>
				</g>
			</g>
		</g>
		<g>
			<g>
				<g>
					<g>
						<g>
							<g>
								<g>
									<g>
										<g>
											<g>
												<path class="st0" d="M685.27,250.31c0,0-0.01-0.11-0.01-0.3c0-0.21-0.01-0.5-0.01-0.87c-0.01-0.78-0.02-1.9-0.03-3.36
													c-0.01-2.95-0.03-7.24-0.06-12.68c-0.03-10.9-0.07-26.43-0.12-45.02l0.23,0.23c-17.38,0.01-37.79,0.02-59.54,0.03h-0.01
													l0.26-0.26c-0.01,22.84-0.03,44.22-0.04,62.24l-0.23-0.23c17.84,0.05,32.7,0.09,43.11,0.12
													c5.2,0.03,9.3,0.05,12.11,0.06c1.39,0.01,2.46,0.02,3.2,0.03c0.35,0.01,0.62,0.01,0.83,0.01
													C685.17,250.3,685.27,250.3,685.27,250.31c0,0-0.08,0.01-0.26,0.01c-0.2,0-0.46,0.01-0.8,0.01
													c-0.73,0.01-1.79,0.01-3.16,0.03c-2.8,0.01-6.88,0.03-12.06,0.06c-10.45,0.03-25.36,0.07-43.26,0.12l-0.23,0l0-0.23
													c-0.01-18.02-0.02-39.4-0.04-62.24l0-0.26h0.26h0.01c21.74,0.01,42.16,0.02,59.54,0.03h0.23l0,0.23
													c-0.05,18.66-0.09,34.24-0.12,45.17c-0.03,5.42-0.05,9.7-0.06,12.63c-0.01,1.44-0.02,2.55-0.03,3.32
													c-0.01,0.36-0.01,0.64-0.01,0.84C685.28,250.22,685.28,250.31,685.27,250.31z"/>
											</g>
										</g>
									</g>
								</g>
							</g>
						</g>
					</g>
				</g>
			</g>
		</g>
		<g>
			<g>
				<g>
					<g>
						<g>
							<g>
								<g>
									<g>
										<g>
											<rect x="645.62" y="209.23" class="st2" width="19.92" height="19.92"/>
										</g>
									</g>
								</g>
							</g>
						</g>
					</g>
				</g>
			</g>
		</g>
	</g>
	<g>
		<g>
			<g>
				<g>
					<g>
						<g>
							<g>
								<g>
									<g>
										<path class="st2" d="M508.37,120.63c-0.9,28.06-24.44,50.08-52.56,49.18c-3.05-0.1-6.03-0.46-8.91-1.07
											c-23.73-4.98-41.19-26.36-40.39-51.38c0.9-28.06,24.43-50.08,52.56-49.18C487.2,69.08,509.27,92.56,508.37,120.63z"/>
									</g>
								</g>
							</g>
						</g>
						<g>
							<g>
								<g>
									<g>
										<path class="st2" d="M497.64,120.81c-0.69,21.39-18.62,38.17-40.06,37.48c-21.43-0.69-38.26-18.58-37.57-39.97
											c0.69-21.39,18.62-38.17,40.06-37.48C481.5,81.53,498.32,99.42,497.64,120.81z"/>
									</g>
								</g>
							</g>
						</g>
					</g>
					<g>
						<g>
							<g>
								<g>
									<g>
										<path class="st0" d="M496.25,120.24c-0.01,0-0.03-0.21-0.05-0.63c-0.02-0.45-0.04-1.06-0.07-1.84
											c-0.01-0.41-0.03-0.86-0.04-1.36c-0.04-0.5-0.13-1.04-0.2-1.62c-0.15-1.17-0.29-2.53-0.69-4.02
											c-0.6-3.01-1.89-6.58-3.99-10.39c-2.12-3.79-5.21-7.77-9.48-11.2c-4.26-3.4-9.66-6.35-15.97-7.66
											c-6.26-1.28-13.38-1.31-20.23,1.04c-1.74,0.5-3.39,1.29-5.08,2.04c-0.83,0.41-1.62,0.9-2.44,1.35
											c-0.83,0.43-1.6,0.97-2.37,1.52c-1.6,1.02-3.01,2.31-4.48,3.55c-1.34,1.39-2.74,2.74-3.91,4.32
											c-2.39,3.09-4.5,6.55-5.84,10.39c-1.38,3.81-2.19,7.88-2.38,12.04c-0.08,4.17,0.46,8.28,1.59,12.17
											c1.09,3.91,2.97,7.5,5.16,10.74c1.06,1.66,2.38,3.1,3.62,4.56c1.39,1.33,2.71,2.72,4.24,3.84
											c1.43,1.24,3.07,2.17,4.61,3.17c1.64,0.85,3.23,1.75,4.94,2.36c6.69,2.78,13.79,3.21,20.12,2.33
											c6.38-0.91,11.96-3.5,16.43-6.62c4.48-3.15,7.82-6.93,10.18-10.57c2.34-3.66,3.86-7.14,4.65-10.11
											c0.5-1.46,0.72-2.8,0.95-3.96c0.11-0.58,0.23-1.11,0.31-1.61c0.05-0.49,0.09-0.94,0.13-1.35
											c0.08-0.77,0.15-1.38,0.19-1.83C496.21,120.45,496.24,120.24,496.25,120.24c0.01,0,0.01,0.21-0.01,0.63
											c-0.03,0.45-0.06,1.07-0.11,1.85c-0.03,0.41-0.06,0.86-0.09,1.36c-0.06,0.5-0.17,1.04-0.27,1.62
											c-0.2,1.17-0.4,2.53-0.88,4.01c-0.75,3-2.24,6.54-4.57,10.27c-2.35,3.71-5.7,7.57-10.23,10.8
											c-4.51,3.2-10.17,5.86-16.66,6.82c-6.44,0.92-13.67,0.51-20.5-2.3c-1.74-0.61-3.37-1.53-5.04-2.39
											c-1.58-1.02-3.25-1.96-4.71-3.22c-1.56-1.14-2.91-2.54-4.33-3.91c-1.28-1.5-2.62-2.96-3.71-4.65
											c-2.24-3.31-4.16-6.97-5.28-10.96c-1.16-3.97-1.71-8.17-1.63-12.43c0.19-4.25,1.02-8.4,2.43-12.29
											c1.37-3.91,3.52-7.45,5.97-10.6c1.19-1.62,2.63-2.99,4-4.4c1.5-1.27,2.95-2.58,4.57-3.62c0.78-0.56,1.57-1.11,2.42-1.54
											c0.84-0.46,1.65-0.95,2.49-1.37c1.73-0.76,3.41-1.56,5.18-2.06c7-2.37,14.24-2.31,20.6-0.98
											c6.41,1.37,11.89,4.4,16.19,7.88c4.31,3.51,7.41,7.57,9.52,11.43c2.09,3.87,3.35,7.5,3.9,10.54
											c0.38,1.5,0.5,2.88,0.62,4.06c0.06,0.59,0.14,1.14,0.16,1.64c0,0.5,0,0.95,0.01,1.36c0,0.78,0,1.39-0.01,1.85
											C496.28,120.03,496.27,120.24,496.25,120.24z"/>
									</g>
								</g>
							</g>
						</g>
					</g>
				</g>
				<g>
					<g>
						<g>
							<g>
								<g>
									<g>
										<path class="st0" d="M461.09,142.28l-0.12,6.76l-6.04-0.11l0.12-6.58c-5.97-0.47-11.68-2.44-14.95-5.1l3.45-7.31
											c2.98,2.29,7.3,3.99,11.64,4.49l0.18-10.09c-6.67-1.75-14.12-4.11-13.97-12.75c0.11-6.4,4.86-11.81,14.42-12.73l0.12-6.7
											l6.04,0.11l-0.12,6.58c4.52,0.44,8.91,1.73,12.19,3.9l-3.15,7.38c-3.05-1.81-6.17-2.89-9.18-3.3l-0.18,10.27
											c6.67,1.69,14,4.05,13.85,12.57C475.27,135.95,470.59,141.3,461.09,142.28z M455.52,115.48l0.15-8.57
											c-3.21,0.67-4.51,2.4-4.55,4.39C451.09,113.41,452.88,114.59,455.52,115.48z M465.65,130.22
											c0.04-2.12-1.69-3.29-4.27-4.25l-0.15,8.33C464.26,133.7,465.62,132.15,465.65,130.22z"/>
									</g>
								</g>
							</g>
						</g>
					</g>
				</g>
			</g>
			<g>
				<g>
					<path class="st1" d="M505.81,166.34c-17.99,16.43-43.66,22.42-67.08,15.57c-19.25-5.63-35.75-19.76-43.4-38.42
						c-7.79-18.98-5.67-40.87,5.37-58.11c11.1-17.34,30.32-28.68,50.75-30.66c25.68-2.48,51.06,9.26,65.12,30.99
						c2.09,3.23,7.29,0.23,5.18-3.03c-13.54-20.92-36.73-33.76-61.66-34.28c-22.67-0.48-45.16,9.41-59.55,27.04
						c-14.25,17.46-19.5,41.04-13.34,62.82c6.06,21.44,22.42,38.68,42.93,46.99c27.02,10.95,58.49,4.9,79.91-14.68
						C512.91,167.98,508.65,163.74,505.81,166.34L505.81,166.34z"/>
				</g>
			</g>
		</g>
		<g>
			<polygon class="st1" points="500.25,83.74 524.7,67.28 524.7,92.18 			"/>
		</g>
	</g>
</g>
<g id="Background_Simple" class="st5">
	<path class="st6" d="M689.27,72.1l-1.52-2.5c-12.78-21.07-35.9-33.77-60.27-32.23c-3.13,0.2-6.25,0.62-9.33,1.28
		c-22.16,4.74-41.44,21.5-49.43,42.96c-4.7,12.62-6.01,27.15-14.93,37.17c-11.61,13.04-31.31,13.45-48.64,12.91
		c-17.33-0.54-37.05-0.08-48.6,13.01c-7.23,8.2-9.53,19.85-8.95,30.83c1.54,29.06,21.8,55.05,47.55,67.97
		c25.76,12.92,56.08,14.07,84.27,8.39c39.49-7.96,77.04-29.82,99.62-63.59S707.33,108.54,689.27,72.1z"/>
	<circle class="st6" cx="105.04" cy="112.8" r="49.16"/>
</g>
<g id="Floor">
	<g>
		<g>
			<path class="st7" d="M691.74,469.79c0,0.14-143.61,0.26-320.72,0.26c-177.17,0-320.75-0.12-320.75-0.26s143.58-0.26,320.75-0.26
				C548.13,469.53,691.74,469.65,691.74,469.79z"/>
		</g>
	</g>
</g>
<g id="Arrow">
	<g>
		<g>
			<path class="st8" d="M407.29,204.36c0,0,36.65,9.65,48.24,48.31l-15.58,6.91c0,0-3.57-26.89-39.89-38.6
				c-19.65-6.34-45.66,2.61-52.87,10.8l-17.49-7.54C341.45,211.36,370.3,194.28,407.29,204.36z"/>
		</g>
		<g>
			<polygon class="st8" points="465.5,242.93 426.76,255.78 456.49,270.68 			"/>
		</g>
	</g>
</g>
<g id="Device">
	<g>
		<g>
			<g>
				<g>
					<g>
						<g>
							<g>
								<g>
									<g>
										<g>
											<g>
												<g>
													<g>
														<g>
															<g>
																<g>
																	<path class="st7" d="M361.57,469.79l-137-0.09c-16.48-0.01-29.83-14.05-29.83-31.37l0.07-360.95
																		c0-17.33,13.37-31.37,29.86-31.36l137,0.08c16.48,0.01,29.83,14.05,29.82,31.37l-0.07,360.95
																		C391.43,455.76,378.06,469.8,361.57,469.79z"/>
																</g>
															</g>
														</g>
													</g>
												</g>
											</g>
										</g>
									</g>
									<g>
										<g>
											<g>
												<g>
													<g>
														<g>
															<g>
																<g>
																	<path class="st3" d="M361.53,58.89l-26.56-0.02c-3.56,0-6.45,3.17-6.45,7.08l0,5.06c0,3.91-2.89,7.08-6.45,7.08
																		l-51.78-0.03c-3.56,0-6.45-3.18-6.45-7.09l0-5.06c0-3.91-2.89-7.09-6.45-7.09l-9.34-0.01L224.8,58.8
																		c-11.55-0.01-20.91,9.83-20.91,21.96l-0.07,352.31c0,12.13,9.35,21.96,20.89,21.97l136.73,0.08
																		c11.55,0.01,20.91-9.83,20.91-21.96l0.07-352.31C382.42,68.73,373.07,58.9,361.53,58.89z"/>
																</g>
															</g>
														</g>
													</g>
												</g>
											</g>
										</g>
									</g>
								</g>
							</g>
						</g>
					</g>
				</g>
			</g>
			<g>
				<g>
					<g>
						<g>
							<g>
								<path class="st0" d="M232.77,427.26v10.34c0,0.9-0.99,1.44-1.74,0.96l-8.13-5.17c-0.7-0.45-0.7-1.47,0-1.92l8.13-5.17
									C231.78,425.82,232.77,426.36,232.77,427.26z"/>
							</g>
						</g>
					</g>
				</g>
				<g>
					<g>
						<g>
							<g>
								<path class="st0" d="M299.56,432.33c0,3.94-3.19,7.14-7.13,7.14c-3.94,0-7.13-3.2-7.13-7.14c0-3.94,3.19-7.14,7.13-7.14
									C296.37,425.19,299.56,428.39,299.56,432.33z"/>
							</g>
						</g>
					</g>
				</g>
				<g>
					<g>
						<g>
							<g>
								<path class="st0" d="M362,439.3h-9.41c-1.03,0-1.87-0.84-1.87-1.87v-9.44c0-1.03,0.84-1.87,1.87-1.87H362
									c1.03,0,1.87,0.84,1.87,1.87v9.44C363.87,438.46,363.03,439.3,362,439.3z"/>
							</g>
						</g>
					</g>
				</g>
			</g>
		</g>
		<g>
			<g>
				<g>
					<g>
						<g>
							<path class="st7" d="M253.52,186.12c3.66,0,7.32,0,10.99,0c-0.71-0.54-1.43-1.09-2.14-1.63c1.62,5.33,3.24,10.67,4.86,16
								c2.57,8.46,5.14,16.93,7.72,25.39c0.59,1.95,1.19,3.91,1.78,5.86c0.28,0.93,1.15,1.63,2.14,1.63
								c10.49-0.03,20.97-0.06,31.46-0.09c1.5,0,3-0.01,4.5-0.01c2.85-0.01,2.86-4.44,0-4.44c-10.49,0.03-20.97,0.06-31.46,0.09
								c-1.5,0-3,0.01-4.5,0.01c0.71,0.54,1.43,1.09,2.14,1.63c-1.62-5.33-3.24-10.67-4.86-16c-2.57-8.46-5.14-16.93-7.72-25.39
								c-0.59-1.95-1.19-3.91-1.78-5.86c-0.28-0.94-1.15-1.63-2.14-1.63c-3.66,0-7.32,0-10.99,0
								C250.66,181.68,250.66,186.12,253.52,186.12L253.52,186.12z"/>
						</g>
					</g>
					<g>
						<g>
							<path class="st7" d="M321.86,191.77c-2.07,9.28-4.14,18.56-6.21,27.84c-0.3,1.33-0.6,2.67-0.89,4
								c0.53-0.41,1.07-0.81,1.6-1.22c-4.49-0.04-8.98-0.09-13.47-0.13c-7.2-0.07-14.4-0.14-21.6-0.21
								c-1.65-0.02-3.29-0.03-4.94-0.05c0.53,0.41,1.07,0.81,1.6,1.22c-2.89-9.19-5.78-18.38-8.66-27.57
								c-0.41-1.3-0.81-2.59-1.22-3.89c-0.53,0.7-1.07,1.4-1.6,2.11c6.45,0,12.9,0,19.34,0c10.19,0,20.39,0,30.58,0
								c2.36,0,4.72,0,7.07,0c2.14,0,2.14-3.33,0-3.33c-6.45,0-12.9,0-19.34,0c-10.19,0-20.39,0-30.58,0c-2.36,0-4.72,0-7.07,0
								c-1.05,0-1.93,1.07-1.6,2.11c2.89,9.19,5.78,18.38,8.66,27.57c0.41,1.3,0.81,2.59,1.22,3.89c0.22,0.71,0.85,1.21,1.6,1.22
								c4.49,0.04,8.98,0.09,13.47,0.13c7.2,0.07,14.4,0.14,21.6,0.21c1.65,0.02,3.29,0.03,4.94,0.05c0.7,0.01,1.45-0.52,1.6-1.22
								c2.07-9.28,4.14-18.56,6.21-27.84c0.3-1.33,0.6-2.67,0.89-4C325.53,190.56,322.33,189.67,321.86,191.77z"/>
						</g>
					</g>
					<g>
						<g>
							<path class="st7" d="M277.8,193.19c1.75,10.15,3.98,20.22,5.73,30.37c0.36,2.11,3.57,1.21,3.21-0.88
								c-1.75-10.15-3.98-20.22-5.73-30.37C280.65,190.2,277.44,191.09,277.8,193.19L277.8,193.19z"/>
						</g>
					</g>
					<g>
						<g>
							<path class="st7" d="M295.37,192.75c0.17,10.41,0.36,20.82,0.53,31.24c0.03,2.14,3.36,2.15,3.33,0
								c-0.17-10.41-0.36-20.82-0.53-31.24C298.67,190.61,295.34,190.6,295.37,192.75L295.37,192.75z"/>
						</g>
					</g>
					<g>
						<g>
							<path class="st7" d="M311.6,224.36c1.41-9.25,2.82-18.49,4.22-27.74c0.2-1.32,0.4-2.65,0.6-3.97
								c0.14-0.89-0.23-1.78-1.16-2.05c-0.79-0.22-1.91,0.27-2.05,1.16c-1.41,9.25-2.82,18.49-4.22,27.74
								c-0.2,1.32-0.4,2.65-0.6,3.97c-0.14,0.89,0.23,1.78,1.16,2.05C310.34,225.74,311.47,225.25,311.6,224.36L311.6,224.36z"/>
						</g>
					</g>
					<g>
						<g>
							<path class="st7" d="M270.09,203.61c16.78,0,33.55,0,50.33,0c2.14,0,2.14-3.33,0-3.33c-16.78,0-33.55,0-50.33,0
								C267.95,200.28,267.94,203.61,270.09,203.61L270.09,203.61z"/>
						</g>
					</g>
					<g>
						<g>
							<path class="st7" d="M274.81,215.29c14.53,0,29.06,0,43.59,0c2.14,0,2.14-3.33,0-3.33c-14.53,0-29.06,0-43.59,0
								C272.66,211.97,272.66,215.29,274.81,215.29L274.81,215.29z"/>
						</g>
					</g>
					<g>
						<circle class="st7" cx="314.83" cy="242.05" r="5.92"/>
					</g>
					<g>
						<circle class="st7" cx="282.27" cy="242.05" r="5.92"/>
					</g>
				</g>
			</g>
			<g>
				<path class="st8" d="M270.92,162.32c0,0-24.36-0.82-38.63,20.85l8.32,7.13c0,0,7.16-15.9,31.69-16.41
					c13.27-0.27,22.4,7.46,25.33,13.84l15.05-0.26C307.83,177.38,295.56,162.94,270.92,162.32z"/>
			</g>
			<g>
				<polygon class="st8" points="229.07,176.11 250.56,191.18 231.04,195.14 				"/>
			</g>
		</g>
		<g>
			<g>
				<path class="st7" d="M371.36,95.99c0,1.33-1.08,2.42-2.42,2.42c-1.33,0-2.42-1.08-2.42-2.42c0-1.33,1.08-2.42,2.42-2.42
					C370.27,93.58,371.36,94.66,371.36,95.99z"/>
			</g>
			<g>
				<circle class="st7" cx="368.94" cy="102.61" r="2.42"/>
			</g>
			<g>
				<circle class="st7" cx="368.94" cy="109.22" r="2.42"/>
			</g>
		</g>
		<g>
			<polygon class="st7" points="224.84,94.85 214.97,102.25 217.48,102.25 217.48,111.09 222.8,111.11 222.8,104.49 226.99,104.47 
				226.99,111.09 232.14,111.09 232.14,102.16 234.7,102.13 			"/>
		</g>
		<g>
			<g>
				<path class="st0" d="M383.05,120.41c0,0.14-40.27,0.26-89.93,0.26c-49.68,0-89.94-0.12-89.94-0.26c0-0.14,40.26-0.26,89.94-0.26
					C342.78,120.15,383.05,120.27,383.05,120.41z"/>
			</g>
		</g>
		<g>
			<g>
				<path class="st0" d="M291.22,385.34h-1.6c-5.41,0-9.8-4.39-9.8-9.8v-78.85c0-5.41,4.39-9.8,9.8-9.8h1.6c5.41,0,9.8,4.39,9.8,9.8
					v78.85C301.02,380.95,296.63,385.34,291.22,385.34z"/>
			</g>
			<g>
				<g>
					<g>
						<g>
							<g>
								<g>
									<g>
										<path class="st8" d="M331.7,338.45c0.02,18.83-15.26,34.11-34.13,34.14c-2.05,0-4.05-0.17-6-0.52
											c-16.02-2.81-28.2-16.75-28.22-33.53c-0.02-18.83,15.26-34.11,34.13-34.13C316.36,304.37,331.67,319.62,331.7,338.45z"/>
									</g>
								</g>
							</g>
						</g>
						<g>
							<g>
								<g>
									<g>
										<path class="st8" d="M324.51,338.81c0.02,14.35-11.63,25.99-26.01,26.01c-14.38,0.02-26.05-11.6-26.07-25.95
											c-0.02-14.35,11.63-26,26.01-26.01C312.82,312.84,324.49,324.46,324.51,338.81z"/>
									</g>
								</g>
							</g>
						</g>
					</g>
					<g>
						<g>
							<g>
								<g>
									<g>
										<path class="st7" d="M323.57,338.46c-0.01,0-0.03-0.14-0.05-0.42c-0.02-0.3-0.05-0.71-0.09-1.23
											c-0.02-0.27-0.04-0.58-0.06-0.91c-0.04-0.33-0.11-0.69-0.17-1.08c-0.13-0.78-0.25-1.69-0.55-2.68
											c-0.47-2-1.42-4.37-2.91-6.87c-1.5-2.49-3.67-5.09-6.6-7.3c-2.93-2.18-6.62-4.04-10.87-4.78
											c-4.23-0.72-8.99-0.58-13.53,1.15c-1.15,0.37-2.24,0.94-3.36,1.48c-0.54,0.29-1.07,0.64-1.6,0.96
											c-0.55,0.31-1.05,0.68-1.55,1.07c-1.05,0.72-1.96,1.62-2.92,2.48c-0.87,0.96-1.78,1.9-2.52,2.98
											c-1.53,2.13-2.87,4.49-3.68,7.09c-0.84,2.58-1.29,5.33-1.32,8.12c0.04,2.79,0.5,5.54,1.34,8.12
											c0.82,2.6,2.16,4.96,3.7,7.08c0.75,1.09,1.66,2.02,2.53,2.98c0.96,0.86,1.88,1.76,2.93,2.48c0.99,0.8,2.1,1.38,3.16,2.02
											c1.12,0.53,2.21,1.1,3.36,1.47c4.55,1.72,9.31,1.84,13.54,1.11c4.25-0.75,7.94-2.62,10.86-4.81
											c2.93-2.21,5.09-4.82,6.59-7.31c1.49-2.51,2.43-4.87,2.89-6.88c0.3-0.99,0.42-1.89,0.55-2.68
											c0.06-0.39,0.13-0.75,0.17-1.08c0.02-0.33,0.04-0.63,0.06-0.91c0.04-0.52,0.07-0.93,0.09-1.23
											C323.54,338.6,323.56,338.46,323.57,338.46c0.01,0,0.01,0.14,0.01,0.42c-0.01,0.31-0.02,0.72-0.03,1.24
											c-0.01,0.28-0.02,0.58-0.03,0.91c-0.03,0.33-0.09,0.7-0.14,1.09c-0.11,0.79-0.21,1.71-0.5,2.71
											c-0.44,2.03-1.36,4.43-2.83,6.98c-1.49,2.54-3.65,5.2-6.61,7.46c-2.95,2.24-6.69,4.16-11.01,4.94
											c-4.29,0.76-9.15,0.65-13.79-1.08c-1.18-0.37-2.29-0.95-3.43-1.49c-1.08-0.65-2.22-1.24-3.23-2.05
											c-1.07-0.73-2.01-1.64-2.99-2.52c-0.89-0.97-1.82-1.93-2.59-3.04c-1.57-2.17-2.95-4.58-3.78-7.23
											c-0.87-2.64-1.33-5.44-1.37-8.29c0.03-2.85,0.49-5.65,1.35-8.29c0.83-2.65,2.19-5.07,3.76-7.24
											c0.76-1.11,1.69-2.07,2.58-3.04c0.98-0.88,1.92-1.8,2.98-2.53c0.51-0.39,1.03-0.78,1.59-1.09
											c0.55-0.32,1.08-0.68,1.64-0.97c1.14-0.55,2.25-1.12,3.43-1.5c4.64-1.75,9.49-1.87,13.79-1.12
											c4.33,0.78,8.07,2.68,11.02,4.92c2.97,2.26,5.14,4.91,6.63,7.45c1.48,2.55,2.41,4.95,2.85,6.98c0.29,1,0.4,1.92,0.51,2.71
											c0.05,0.4,0.12,0.76,0.15,1.09c0.01,0.33,0.02,0.64,0.03,0.91c0.02,0.52,0.03,0.93,0.04,1.24
											C323.58,338.32,323.58,338.46,323.57,338.46z"/>
									</g>
								</g>
							</g>
						</g>
					</g>
				</g>
				<g>
					<g class="st9">
						<g>
							<g>
								<path d="M323.36,338.73c-0.16,0.01-0.27-1.14-0.69-3.13c-0.43-1.98-1.21-4.85-2.98-7.98c-0.89-1.56-2.01-3.17-3.42-4.73
									c-1.42-1.54-3.1-3.03-5.08-4.29c-0.98-0.63-2.03-1.22-3.15-1.73c-1.11-0.51-2.28-0.96-3.5-1.3
									c-1.22-0.34-2.48-0.63-3.79-0.78c-1.3-0.16-2.63-0.22-3.98-0.19c-1.35,0.05-2.67,0.21-3.96,0.45
									c-1.29,0.24-2.53,0.61-3.73,1.03c-1.2,0.42-2.33,0.95-3.41,1.53c-1.08,0.57-2.09,1.23-3.03,1.93
									c-1.89,1.39-3.48,2.99-4.79,4.62c-1.3,1.64-2.32,3.33-3.11,4.94c-1.57,3.24-2.16,6.15-2.46,8.16
									c-0.29,2.02-0.32,3.16-0.48,3.17c-0.12,0.01-0.34-1.14-0.29-3.24c0.07-2.09,0.47-5.17,1.95-8.67
									c0.74-1.74,1.75-3.58,3.08-5.37c1.34-1.78,2.99-3.54,4.99-5.07c0.99-0.77,2.06-1.5,3.22-2.13c1.15-0.64,2.37-1.23,3.65-1.69
									c1.29-0.47,2.63-0.87,4.02-1.14c1.39-0.27,2.82-0.44,4.27-0.49c1.45-0.04,2.89,0.03,4.29,0.21c1.4,0.18,2.77,0.49,4.08,0.87
									c1.32,0.38,2.57,0.89,3.76,1.45c1.19,0.56,2.31,1.21,3.35,1.91c2.09,1.4,3.85,3.04,5.31,4.73c1.44,1.7,2.57,3.47,3.43,5.16
									c1.71,3.39,2.31,6.45,2.51,8.52C323.63,337.57,323.48,338.73,323.36,338.73z"/>
							</g>
						</g>
					</g>
				</g>
				<g class="st9">
					<g>
						<g>
							<g>
								<g>
									<g>
										<path d="M300.49,354.02l0.07,4.54l-4.05,0.06l-0.07-4.41c-4.01-0.18-7.88-1.37-10.13-3.08l2.15-4.98
											c2.05,1.47,4.98,2.51,7.9,2.75l-0.11-6.76c-4.51-1.02-9.56-2.44-9.65-8.23c-0.07-4.29,2.99-8.03,9.38-8.85l-0.07-4.5
											l4.05-0.06l0.07,4.41c3.04,0.2,6.01,0.96,8.26,2.34l-1.95,5.01c-2.08-1.14-4.2-1.8-6.23-2.01l0.11,6.89
											c4.51,0.98,9.48,2.4,9.56,8.11C309.86,349.46,306.84,353.15,300.49,354.02z M296.16,336.18l-0.09-5.75
											c-2.14,0.52-2.97,1.71-2.95,3.04C293.14,334.89,294.37,335.65,296.16,336.18z M303.28,345.83
											c-0.02-1.42-1.21-2.17-2.96-2.75l0.09,5.59C302.43,348.2,303.3,347.13,303.28,345.83z"/>
									</g>
								</g>
							</g>
						</g>
					</g>
				</g>
			</g>
			<g>
				<rect x="239.6" y="290.84" class="st3" width="39.44" height="88.16"/>
			</g>
		</g>
	</g>
</g>
<g id="Coins">
	<g>
		<g>
			<g>
				<g>
					<g>
						<g>
							<g>
								<path class="st8" d="M497.94,330.74c4.39,19.63-8,39.11-27.67,43.51c-2.13,0.48-4.26,0.76-6.37,0.85
									c-17.35,0.79-33.29-10.92-37.2-28.42c-4.39-19.63,7.99-39.11,27.67-43.51C474.03,298.77,493.54,311.11,497.94,330.74z"/>
							</g>
						</g>
					</g>
				</g>
				<g>
					<g>
						<g>
							<g>
								<path class="st8" d="M490.52,332.78c3.35,14.96-6.09,29.8-21.09,33.16c-14.99,3.36-29.86-6.05-33.21-21.01
									c-3.35-14.96,6.09-29.8,21.09-33.16C472.31,308.42,487.17,317.83,490.52,332.78z"/>
							</g>
						</g>
					</g>
				</g>
			</g>
			<g>
				<g>
					<g>
						<g>
							<g>
								<path class="st7" d="M489.46,332.63c-0.01,0-0.06-0.14-0.15-0.43c-0.09-0.31-0.22-0.73-0.38-1.26
									c-0.08-0.28-0.17-0.59-0.27-0.93c-0.12-0.34-0.28-0.7-0.43-1.09c-0.31-0.79-0.65-1.7-1.2-2.66
									c-0.95-1.98-2.49-4.23-4.63-6.49c-2.15-2.25-5-4.46-8.58-6.08c-3.56-1.6-7.84-2.67-12.45-2.46
									c-4.57,0.23-9.51,1.48-13.85,4.34c-1.12,0.66-2.12,1.5-3.16,2.32c-0.5,0.43-0.96,0.91-1.45,1.37
									c-0.5,0.45-0.94,0.96-1.37,1.48c-0.92,0.99-1.67,2.14-2.47,3.27c-0.68,1.2-1.41,2.39-1.94,3.7
									c-1.11,2.57-1.95,5.35-2.19,8.25c-0.28,2.89-0.11,5.85,0.5,8.77c0.69,2.9,1.8,5.66,3.28,8.16c1.45,2.52,3.4,4.67,5.5,6.53
									c1.03,0.96,2.2,1.72,3.33,2.52c1.2,0.68,2.37,1.4,3.63,1.9c1.21,0.6,2.51,0.96,3.77,1.37c1.29,0.3,2.56,0.64,3.85,0.75
									c5.14,0.73,10.14-0.24,14.37-1.98c4.26-1.77,7.67-4.57,10.21-7.53c2.54-2.99,4.19-6.2,5.17-9.15
									c0.97-2.96,1.4-5.65,1.42-7.84c0.09-1.1,0-2.07-0.05-2.92c-0.03-0.42-0.04-0.81-0.08-1.17c-0.05-0.35-0.1-0.67-0.15-0.96
									c-0.08-0.55-0.15-0.98-0.19-1.31C489.47,332.79,489.45,332.64,489.46,332.63c0.01,0,0.05,0.15,0.11,0.44
									c0.06,0.32,0.15,0.75,0.25,1.3c0.05,0.29,0.11,0.61,0.18,0.96c0.05,0.36,0.07,0.75,0.1,1.17c0.07,0.85,0.17,1.83,0.1,2.94
									c0.02,2.22-0.39,4.94-1.34,7.94c-0.96,3-2.6,6.27-5.16,9.32c-2.56,3.02-6.01,5.89-10.34,7.71c-4.3,1.79-9.39,2.8-14.63,2.07
									c-1.32-0.12-2.61-0.46-3.93-0.76c-1.28-0.42-2.61-0.78-3.85-1.39c-1.29-0.51-2.48-1.24-3.7-1.93
									c-1.15-0.81-2.35-1.59-3.4-2.56c-2.14-1.89-4.13-4.09-5.62-6.66c-1.51-2.55-2.65-5.36-3.35-8.33
									c-0.63-2.98-0.8-6.01-0.51-8.96c0.25-2.96,1.11-5.79,2.25-8.42c0.54-1.33,1.29-2.55,1.98-3.77
									c0.82-1.15,1.58-2.32,2.53-3.33c0.44-0.53,0.89-1.05,1.4-1.5c0.5-0.47,0.97-0.96,1.48-1.39c1.06-0.83,2.09-1.69,3.23-2.36
									c4.43-2.9,9.46-4.15,14.12-4.37c4.69-0.2,9.04,0.92,12.64,2.57c3.62,1.66,6.5,3.93,8.64,6.23c2.14,2.31,3.66,4.6,4.59,6.61
									c0.53,0.97,0.86,1.91,1.16,2.7c0.15,0.4,0.3,0.76,0.41,1.11c0.09,0.35,0.17,0.66,0.25,0.95c0.14,0.54,0.25,0.97,0.33,1.28
									C489.44,332.48,489.47,332.63,489.46,332.63z"/>
							</g>
						</g>
					</g>
				</g>
			</g>
		</g>
		<g>
			<g class="st9">
				<g>
					<g>
						<path d="M489.31,332.97c-0.16,0.04-0.54-1.12-1.44-3.11c-0.91-1.97-2.39-4.77-4.96-7.63c-1.28-1.42-2.83-2.84-4.66-4.14
							c-1.84-1.28-3.94-2.44-6.29-3.3c-1.17-0.43-2.4-0.81-3.68-1.07c-1.28-0.27-2.6-0.47-3.95-0.54c-1.35-0.07-2.74-0.08-4.13,0.06
							c-1.39,0.14-2.79,0.38-4.19,0.73c-1.39,0.37-2.74,0.83-4.02,1.38c-1.29,0.55-2.5,1.22-3.65,1.94
							c-1.15,0.72-2.21,1.53-3.2,2.39c-0.99,0.85-1.89,1.77-2.71,2.71c-1.65,1.89-2.93,3.92-3.92,5.93
							c-0.98,2.02-1.65,4.01-2.09,5.88c-0.88,3.74-0.83,6.91-0.67,9.08c0.17,2.17,0.4,3.38,0.23,3.42
							c-0.12,0.03-0.62-1.11-1.05-3.31c-0.41-2.19-0.71-5.5,0.03-9.49c0.37-1.99,1-4.14,1.97-6.32c0.99-2.17,2.3-4.39,4.03-6.45
							c0.86-1.03,1.81-2.04,2.86-2.97c1.05-0.93,2.18-1.83,3.42-2.61c1.23-0.79,2.54-1.52,3.92-2.12c1.39-0.6,2.84-1.11,4.33-1.5
							c1.5-0.38,3.02-0.63,4.52-0.77c1.5-0.14,3-0.13,4.46-0.04c1.46,0.09,2.88,0.33,4.25,0.64c1.37,0.3,2.69,0.73,3.94,1.22
							c2.51,0.97,4.72,2.28,6.63,3.7c1.9,1.44,3.48,3.02,4.77,4.58c2.57,3.14,3.9,6.19,4.6,8.31
							C489.32,331.7,489.43,332.94,489.31,332.97z"/>
					</g>
				</g>
			</g>
		</g>
		<g class="st9">
			<g>
				<g>
					<g>
						<g>
							<g>
								<path d="M469.01,354.21l1.13,4.71l-4.21,1l-1.1-4.59c-4.23,0.74-8.54,0.39-11.28-0.86l1.09-5.69
									c2.48,1.05,5.78,1.47,8.88,1.04l-1.68-7.03c-4.94-0.02-10.53-0.33-11.97-6.35c-1.07-4.46,1.26-9.06,7.73-11.41l-1.12-4.67
									l4.21-1.01l1.1,4.59c3.22-0.5,6.49-0.4,9.15,0.52l-0.87,5.68c-2.44-0.71-4.8-0.9-6.96-0.65l1.71,7.15
									c4.93-0.02,10.44,0.31,11.86,6.24C477.72,347.28,475.42,351.84,469.01,354.21z M460.36,336.62l-1.43-5.97
									c-2.11,1.04-2.7,2.47-2.37,3.86C456.91,335.98,458.36,336.48,460.36,336.62z M470.02,345.03c-0.35-1.47-1.76-1.98-3.72-2.18
									l1.39,5.81C469.68,347.69,470.34,346.38,470.02,345.03z"/>
							</g>
						</g>
					</g>
				</g>
			</g>
		</g>
	</g>
	<g>
		<g>
			<g>
				<g>
					<g>
						<g>
							<g>
								<path class="st8" d="M419.11,314.76c-9.53,20.22-33.68,28.87-53.95,19.32c-2.2-1.04-4.26-2.24-6.18-3.6
									c-15.77-11.14-21.77-32.28-13.27-50.31c9.53-20.22,33.68-28.87,53.95-19.32C419.93,270.4,428.64,294.54,419.11,314.76z"/>
							</g>
						</g>
					</g>
				</g>
				<g>
					<g>
						<g>
							<g>
								<path class="st8" d="M411.21,311.5c-7.26,15.41-25.67,22-41.11,14.72c-15.44-7.28-22.08-25.67-14.82-41.08
									c7.26-15.41,25.67-22,41.11-14.73C411.84,277.7,418.47,296.09,411.21,311.5z"/>
							</g>
						</g>
					</g>
				</g>
			</g>
			<g>
				<g>
					<g>
						<g>
							<g>
								<path class="st7" d="M410.38,310.64c-0.01,0,0.04-0.17,0.16-0.48c0.13-0.34,0.3-0.79,0.53-1.37c0.12-0.3,0.25-0.64,0.4-1.01
									c0.13-0.38,0.23-0.8,0.37-1.25c0.26-0.91,0.59-1.94,0.76-3.15c0.51-2.39,0.7-5.41,0.37-8.85
									c-0.35-3.44-1.35-7.33-3.39-11.18c-2.04-3.83-5.06-7.69-9.25-10.65c-4.17-2.91-9.36-5.19-15.11-5.63
									c-1.43-0.19-2.88-0.13-4.35-0.12c-0.73,0.04-1.47,0.15-2.21,0.21c-0.74,0.05-1.48,0.2-2.21,0.36
									c-1.49,0.24-2.93,0.74-4.39,1.18c-1.42,0.59-2.87,1.13-4.22,1.92c-2.73,1.5-5.36,3.36-7.55,5.74
									c-2.21,2.35-4.09,5.06-5.54,8.05c-1.37,3.02-2.28,6.2-2.68,9.4c-0.44,3.2-0.2,6.42,0.37,9.48c0.25,1.55,0.76,3.01,1.21,4.48
									c0.59,1.41,1.12,2.84,1.89,4.14c0.65,1.36,1.55,2.55,2.37,3.77c0.93,1.14,1.81,2.3,2.86,3.28c4.01,4.15,9.06,6.7,13.97,8.06
									c4.95,1.35,9.85,1.22,14.1,0.35c4.27-0.89,7.91-2.59,10.78-4.51c2.87-1.94,5.08-4,6.59-5.92c0.82-0.91,1.41-1.82,1.95-2.6
									c0.26-0.39,0.52-0.74,0.73-1.08c0.19-0.35,0.37-0.66,0.52-0.95c0.3-0.54,0.54-0.96,0.72-1.28
									C410.28,310.79,410.37,310.64,410.38,310.64c0.01,0-0.06,0.16-0.21,0.46c-0.16,0.32-0.38,0.76-0.67,1.31
									c-0.15,0.29-0.32,0.61-0.5,0.97c-0.2,0.35-0.45,0.7-0.71,1.1c-0.52,0.79-1.1,1.72-1.91,2.65c-1.5,1.96-3.7,4.07-6.59,6.06
									c-2.89,1.97-6.56,3.73-10.89,4.66c-4.31,0.91-9.29,1.07-14.33-0.28c-5-1.36-10.15-3.94-14.25-8.16
									c-1.08-1-1.98-2.18-2.93-3.34c-0.84-1.24-1.76-2.46-2.43-3.84c-0.78-1.33-1.33-2.78-1.93-4.22
									c-0.46-1.5-0.98-2.99-1.24-4.57c-0.59-3.12-0.84-6.41-0.39-9.68c0.41-3.27,1.33-6.52,2.73-9.6c1.48-3.04,3.4-5.82,5.66-8.21
									c2.24-2.43,4.93-4.33,7.71-5.86c1.38-0.8,2.87-1.36,4.31-1.95c1.5-0.45,2.97-0.96,4.49-1.2c0.75-0.16,1.5-0.31,2.26-0.36
									c0.75-0.07,1.5-0.18,2.25-0.21c1.5-0.01,2.98-0.06,4.44,0.13c5.86,0.48,11.14,2.81,15.37,5.79
									c4.25,3.03,7.3,6.97,9.34,10.87c2.04,3.93,3.02,7.88,3.34,11.36c0.3,3.49,0.08,6.54-0.48,8.94
									c-0.2,1.22-0.54,2.26-0.83,3.16c-0.14,0.45-0.26,0.87-0.4,1.25c-0.16,0.36-0.3,0.7-0.43,1c-0.25,0.57-0.44,1.02-0.59,1.35
									C410.47,310.5,410.39,310.65,410.38,310.64z"/>
							</g>
						</g>
					</g>
				</g>
			</g>
		</g>
		<g>
			<g class="st9">
				<g>
					<g>
						<path d="M410.03,310.83c-0.17-0.07,0.29-1.36,0.85-3.71c0.55-2.34,1.16-5.82,0.84-10.08c-0.16-2.12-0.55-4.43-1.27-6.81
							c-0.74-2.37-1.79-4.83-3.28-7.19c-0.74-1.18-1.56-2.35-2.5-3.45c-0.94-1.11-1.96-2.19-3.1-3.17
							c-1.14-0.99-2.35-1.93-3.67-2.76c-1.32-0.83-2.71-1.57-4.17-2.22c-1.47-0.62-2.97-1.13-4.47-1.53
							c-1.51-0.4-3.02-0.63-4.52-0.79c-1.5-0.16-2.99-0.16-4.44-0.09c-1.45,0.07-2.87,0.26-4.23,0.53
							c-2.73,0.53-5.25,1.45-7.49,2.53c-2.23,1.1-4.18,2.39-5.84,3.73c-3.32,2.68-5.44,5.5-6.78,7.51
							c-1.33,2.02-1.95,3.23-2.12,3.16c-0.13-0.05,0.21-1.39,1.34-3.62c1.13-2.2,3.13-5.31,6.5-8.32c1.68-1.49,3.69-2.95,6.04-4.2
							c2.35-1.23,5.01-2.28,7.93-2.91c1.46-0.32,2.97-0.56,4.54-0.65c1.56-0.1,3.16-0.12,4.78,0.04c1.62,0.15,3.26,0.4,4.89,0.81
							c1.63,0.42,3.24,0.96,4.83,1.64c1.58,0.69,3.08,1.5,4.5,2.4c1.42,0.9,2.72,1.93,3.94,3.01c1.22,1.08,2.31,2.25,3.3,3.46
							c1,1.2,1.86,2.47,2.62,3.75c1.54,2.56,2.59,5.22,3.3,7.77c0.69,2.56,1,5.03,1.06,7.27c0.11,4.51-0.79,8.09-1.63,10.42
							C410.9,309.73,410.15,310.89,410.03,310.83z"/>
					</g>
				</g>
			</g>
		</g>
		<g class="st9">
			<g>
				<g>
					<g>
						<g>
							<g>
								<path d="M377.72,315.64l-2.22,4.9l-4.38-1.99l2.16-4.77c-4.22-2.23-7.76-5.47-9.31-8.45l4.83-4.25
									c1.45,2.61,4.07,5.23,7.09,6.96l3.32-7.31c-4.32-3.39-9.02-7.47-6.18-13.73c2.11-4.64,7.28-7.1,14.56-4.75l2.21-4.86
									l4.38,1.99l-2.17,4.77c3.16,1.75,5.96,4.08,7.68,6.7l-4.63,4.39c-1.66-2.28-3.6-4.06-5.67-5.32l-3.38,7.45
									c4.34,3.34,8.95,7.39,6.15,13.56C390.09,315.5,384.97,317.93,377.72,315.64z M382.12,294.3l2.82-6.22
									c-2.56-0.53-4.05,0.33-4.71,1.77C379.54,291.38,380.47,292.81,382.12,294.3z M384.87,308.27c0.7-1.53-0.2-2.94-1.78-4.45
									l-2.74,6.04C382.75,310.37,384.23,309.67,384.87,308.27z"/>
							</g>
						</g>
					</g>
				</g>
			</g>
		</g>
	</g>
</g>
<g id="Plants">
	<g>
		<g>
			<path class="st10" d="M162.1,245.45c-11.71,6.07-20.69,16.51-27.15,28.01c-6.46,11.5-10.62,24.12-14.74,36.65l-3.61,64.61
				c13.63-23.18,24.56-50.43,27.52-77.16c-3.02-0.27-6.05-0.54-9.07-0.81c6.08-0.93,11.18-5.33,14.43-10.56
				c3.25-5.22,4.92-11.25,6.55-17.18c-3.69,0.55-7.38,1.1-11.06,1.64C153.64,264.88,159.92,255.63,162.1,245.45z"/>
		</g>
		<g class="st9">
			<g>
				<path d="M162.1,245.45c-11.71,6.07-20.69,16.51-27.15,28.01c-6.46,11.5-10.62,24.12-14.74,36.65l-3.61,64.61
					c13.63-23.18,24.56-50.43,27.52-77.16c-3.02-0.27-6.05-0.54-9.07-0.81c6.08-0.93,11.18-5.33,14.43-10.56
					c3.25-5.22,4.92-11.25,6.55-17.18c-3.69,0.55-7.38,1.1-11.06,1.64C153.64,264.88,159.92,255.63,162.1,245.45z"/>
			</g>
		</g>
		<g>
			<path class="st10" d="M114.59,389.86c0,0-29.58-35.4-29.24-69.2H97.3c0,0-12.98-8.53-11.95-13.31
				c1.03-4.78,1.37-22.87,1.37-22.87l10.92,2.73c0,0-8.19-4.1-9.22-10.58s2.39-36.53,2.39-36.53s13.31,14,17.41,28.33
				c4.1,14.34,14.85,31.06,11.69,74.76C116.76,386.89,114.59,389.86,114.59,389.86z"/>
		</g>
		<g>
			<path class="st10" d="M129.58,393.2c0,0,32.04-21.35,39.16-48.59l-9.61-2.61c0,0,12.3-4.02,12.52-8.09
				c0.22-4.07,3.9-18.69,3.9-18.69l-9.38-0.19c0,0,7.48-1.5,9.73-6.49c2.24-4.99,6.07-29.89,6.07-29.89s-13.77,8.34-20.2,18.97
				c-6.43,10.63-18.73,21.73-25.76,57.55C129.01,390.98,129.58,393.2,129.58,393.2z"/>
		</g>
		<g>
			<g>
				<path class="st7" d="M98.89,270.97c0.01,0,0.04,0.12,0.1,0.37c0.06,0.27,0.15,0.63,0.26,1.09c0.22,0.99,0.53,2.4,0.94,4.2
					c0.41,1.82,0.89,4.06,1.4,6.67c0.53,2.6,1.14,5.56,1.74,8.85c1.27,6.56,2.6,14.41,3.98,23.14c1.33,8.74,2.66,18.36,3.85,28.49
					c1.16,10.14,2.06,19.82,2.76,28.63c0.65,8.82,1.14,16.76,1.41,23.44c0.17,3.34,0.25,6.36,0.33,9.01
					c0.09,2.65,0.14,4.94,0.16,6.81c0.02,1.85,0.04,3.29,0.05,4.3c0,0.47,0,0.84,0,1.12c0,0.25-0.01,0.38-0.02,0.38
					c-0.01,0-0.02-0.13-0.04-0.38c-0.01-0.28-0.03-0.65-0.05-1.12c-0.03-1.01-0.08-2.46-0.15-4.3c-0.05-1.87-0.13-4.15-0.24-6.8
					c-0.11-2.65-0.21-5.67-0.4-9.01c-0.31-6.67-0.84-14.61-1.52-23.42c-0.72-8.8-1.64-18.48-2.79-28.61
					c-1.18-10.12-2.5-19.75-3.8-28.48c-1.35-8.73-2.65-16.58-3.86-23.15c-0.58-3.29-1.16-6.26-1.66-8.86
					c-0.49-2.61-0.94-4.85-1.31-6.68c-0.36-1.81-0.64-3.23-0.84-4.22c-0.09-0.46-0.15-0.83-0.21-1.1
					C98.9,271.1,98.89,270.97,98.89,270.97z"/>
			</g>
		</g>
		<g>
			<path class="st10" d="M110.49,411.54c0,0-27.07-30.71-35.47-49.28l6.34-2.71c-4.6,0.76-9.31-1.22-12.88-4.22
				c-3.57-3-6.18-6.95-8.75-10.84l8.36-1.41c-7.6-2.13-14.3-7.32-18.26-14.15c9.86,1.62,18.79,7.04,26.14,13.81
				c5.95,5.48,11,11.85,15.84,18.35c2.36,3.17,4.43,6.55,6.15,10.11C102.5,380.61,110.5,400.26,110.49,411.54z"/>
		</g>
		<g>
			<g>
				<path class="st7" d="M169.17,296.52c0.01,0-0.04,0.11-0.13,0.31c-0.11,0.23-0.24,0.52-0.42,0.89c-0.39,0.81-0.95,1.95-1.65,3.41
					c-1.45,2.95-3.51,7.24-6,12.56c-2.5,5.32-5.37,11.7-8.46,18.83c-3.06,7.14-6.32,15.03-9.56,23.39
					c-3.22,8.37-6.12,16.4-8.66,23.74c-2.51,7.35-4.68,14-6.41,19.62c-1.74,5.61-3.1,10.17-4.01,13.33
					c-0.46,1.55-0.82,2.77-1.07,3.63c-0.12,0.39-0.22,0.7-0.29,0.94c-0.07,0.21-0.11,0.32-0.12,0.32c-0.01,0,0.01-0.11,0.07-0.33
					c0.06-0.24,0.14-0.56,0.24-0.95c0.23-0.87,0.56-2.09,0.98-3.66c0.85-3.18,2.16-7.75,3.85-13.38c1.69-5.63,3.82-12.3,6.31-19.67
					c2.52-7.36,5.4-15.4,8.63-23.78c3.24-8.36,6.52-16.26,9.61-23.39c3.11-7.12,6.02-13.49,8.56-18.79
					c2.53-5.3,4.64-9.57,6.15-12.49c0.74-1.44,1.33-2.56,1.74-3.36c0.19-0.36,0.35-0.65,0.46-0.87
					C169.11,296.61,169.16,296.51,169.17,296.52z"/>
			</g>
		</g>
		<g>
			<g>
				<path class="st7" d="M112.78,424.7c-0.02,0-0.06-0.19-0.13-0.56c-0.07-0.43-0.16-0.97-0.26-1.63c-0.1-0.71-0.23-1.58-0.42-2.58
					c-0.18-1-0.36-2.15-0.63-3.4c-0.48-2.51-1.18-5.48-2.07-8.75c-0.91-3.26-2.04-6.81-3.41-10.46c-1.39-3.65-2.89-7.06-4.36-10.11
					c-1.49-3.04-2.94-5.72-4.23-7.93c-0.62-1.12-1.25-2.09-1.77-2.97c-0.52-0.87-1-1.61-1.39-2.21c-0.36-0.57-0.65-1.03-0.88-1.4
					c-0.2-0.32-0.29-0.5-0.28-0.51c0.01-0.01,0.14,0.14,0.36,0.45c0.25,0.35,0.57,0.8,0.96,1.34c0.42,0.58,0.92,1.31,1.46,2.17
					c0.55,0.86,1.2,1.82,1.85,2.93c1.34,2.19,2.82,4.87,4.35,7.91c1.5,3.05,3.02,6.47,4.42,10.13c1.38,3.67,2.49,7.24,3.38,10.52
					c0.86,3.29,1.52,6.28,1.96,8.81c0.25,1.26,0.4,2.41,0.55,3.42c0.16,1.01,0.26,1.88,0.33,2.59c0.07,0.67,0.12,1.21,0.16,1.64
					C112.79,424.5,112.8,424.7,112.78,424.7z"/>
			</g>
		</g>
		<g>
			<rect x="89.26" y="417.47" class="st8" width="59.24" height="12.08"/>
		</g>
		<g>
			<polygon class="st8" points="94.9,429.56 101.31,470.2 137.11,470.2 143.08,429.56 			"/>
		</g>
		<g>
			<g>
				<path class="st7" d="M144.86,429.56c0,0.14-11.21,0.26-25.03,0.26c-13.83,0-25.03-0.12-25.03-0.26s11.2-0.26,25.03-0.26
					C133.66,429.3,144.86,429.41,144.86,429.56z"/>
			</g>
		</g>
	</g>
</g>
<g id="Character_1_">
	<g>
		<g>
			<path class="st10" d="M584.18,470.65H428.51c-4.35,0-7.87-3.53-7.87-7.87V356.7c0-4.35,3.53-7.87,7.87-7.87h155.67
				c4.35,0,7.87,3.53,7.87,7.87v106.08C592.06,467.13,588.53,470.65,584.18,470.65z"/>
		</g>
		<g>
			<path class="st10" d="M589.54,427.4h-44.37c-7.36,0-13.33-5.97-13.33-13.33v-2.18c0-7.36,5.97-13.33,13.33-13.33h44.37
				c7.36,0,13.33,5.97,13.33,13.33v2.18C602.87,421.43,596.9,427.4,589.54,427.4z"/>
			<path class="st7" d="M589.54,427.9h-44.37c-7.63,0-13.83-6.21-13.83-13.83v-2.18c0-7.63,6.21-13.83,13.83-13.83h44.37
				c7.63,0,13.83,6.21,13.83,13.83v2.18C603.37,421.69,597.16,427.9,589.54,427.9z M545.17,399.05c-7.08,0-12.83,5.76-12.83,12.83
				v2.18c0,7.08,5.76,12.83,12.83,12.83h44.37c7.08,0,12.83-5.76,12.83-12.83v-2.18c0-7.08-5.76-12.83-12.83-12.83H545.17z"/>
		</g>
		<g>
			
				<ellipse transform="matrix(0.5753 -0.8179 0.8179 0.5753 -105.1649 623.3908)" class="st7" cx="547.76" cy="412.97" rx="10.25" ry="10.25"/>
		</g>
	</g>
	<g>
		<g>
			<g>
				<path class="st7" d="M535.27,128.32c-0.3,10.52,4.16,21.09,11.92,28.2c1.78-5.15,3.55-10.29,5.33-15.44"/>
			</g>
			<g>
				<path class="st7" d="M575.44,97.61c-4.57-2.5-10.1-2.86-15.21-1.84c-5.11,1.02-9.87,3.34-14.39,5.95
					c-2.53,1.46-5.06,3.07-6.88,5.36c-3.32,4.18-6.6,11.04-6.92,16.37c-0.26,4.31,1.39,15.09,3.21,19.01
					c1.67,3.59,9.49,6.32,13.35,7.21l35.42-41.19C582.78,103.9,579.6,99.89,575.44,97.61z"/>
			</g>
			<g>
				<path class="st7" d="M581.54,103.17l-8.49-1.52c4.64,11.05,5.9,36.33,8.56,48.03c3.13-4.54,10.4-18.37,10.01-23.88
					C591.23,120.3,591.63,102.23,581.54,103.17z"/>
			</g>
			<g>
				<path class="st11" d="M586.4,121.19c-0.55-8.48-6.2-18.88-14.65-17.97l-19.55,4.99c-6.27,1.6-10.45,6.9-10.91,13.36
					c-0.02,0.32-0.06-0.07-0.05,0.17l4.36,50.64l14.68,29.13l0,0l12.96-24.57c0.01-4.13,0-13.39,0-13.37c0,0,10.83-1.82,13.05-15.97
					C587.39,140.56,587.01,130.61,586.4,121.19z"/>
			</g>
			<g>
				<path class="st7" d="M580.34,132.79c0.04,0.96-0.75,1.78-1.74,1.83c-1,0.06-1.84-0.67-1.87-1.63c-0.04-0.96,0.75-1.78,1.74-1.83
					C579.46,131.11,580.3,131.84,580.34,132.79z"/>
			</g>
			<g>
				<path class="st7" d="M584.28,126.73c-0.22,0.24-1.6-0.78-3.55-0.77c-1.95-0.02-3.38,0.99-3.59,0.75
					c-0.1-0.11,0.12-0.53,0.75-0.99c0.61-0.45,1.66-0.9,2.87-0.89c1.22,0,2.24,0.45,2.83,0.91
					C584.18,126.2,584.39,126.62,584.28,126.73z"/>
			</g>
			<g>
				<path class="st7" d="M563.98,132.79c0.04,0.96-0.75,1.78-1.74,1.83c-1,0.06-1.84-0.67-1.87-1.63c-0.04-0.96,0.75-1.78,1.74-1.83
					C563.11,131.11,563.95,131.84,563.98,132.79z"/>
			</g>
			<g>
				<path class="st7" d="M565.74,126.73c-0.23,0.24-1.6-0.78-3.55-0.77c-1.95-0.02-3.38,0.99-3.59,0.75
					c-0.1-0.11,0.12-0.53,0.75-0.99c0.61-0.45,1.66-0.9,2.87-0.89c1.22,0,2.24,0.45,2.83,0.91
					C565.65,126.2,565.85,126.62,565.74,126.73z"/>
			</g>
			<g>
				<path class="st7" d="M571.84,142.06c-0.01-0.11,1.2-0.32,3.17-0.58c0.5-0.05,0.97-0.15,1.05-0.49c0.12-0.36-0.09-0.9-0.34-1.48
					c-0.47-1.2-0.96-2.47-1.48-3.79c-2.06-5.4-3.55-9.84-3.33-9.92c0.22-0.08,2.06,4.23,4.12,9.63c0.5,1.33,0.97,2.6,1.42,3.81
					c0.19,0.57,0.52,1.21,0.26,1.96c-0.13,0.37-0.5,0.64-0.82,0.73c-0.32,0.1-0.6,0.1-0.85,0.12
					C573.08,142.16,571.85,142.17,571.84,142.06z"/>
			</g>
			<g>
				<path class="st12" d="M554.49,158.53c0,0,4.6,9.71,18.75,8.36l0-3.33C573.24,163.56,563.92,164.18,554.49,158.53z"/>
			</g>
			<g>
				<path class="st7" d="M565.13,119.68c-0.19,0.53-2.14,0.28-4.43,0.56c-2.3,0.24-4.14,0.91-4.44,0.43
					c-0.14-0.23,0.18-0.73,0.93-1.24c0.74-0.51,1.92-1,3.29-1.16c1.37-0.15,2.63,0.06,3.47,0.4
					C564.79,119.01,565.21,119.43,565.13,119.68z"/>
			</g>
			<g>
				<path class="st7" d="M583.64,120.76c-0.34,0.44-1.69-0.01-3.3-0.03c-1.62-0.07-2.98,0.3-3.3-0.16
					c-0.14-0.22,0.08-0.67,0.67-1.09c0.59-0.42,1.57-0.76,2.68-0.73c1.11,0.03,2.07,0.43,2.64,0.89
					C583.6,120.09,583.79,120.54,583.64,120.76z"/>
			</g>
			<g>
				<path class="st7" d="M582.56,108.28c-0.86-2.13-3.2-3.41-5.49-3.52c-2.29-0.12-4.53,0.75-6.52,1.9
					c-8.42,4.87-12.75,16.63-21.07,21.66c-2.05,1.24-4.71,0.1-6.45,1.74c-1.74,1.64-2.87,4.26-1.91,6.45
					c-1.12-1.53-2.25-3.09-2.89-4.88c-0.64-1.79-0.72-3.87,0.23-5.51c0.72-1.25,1.99-2.2,2.34-3.6c0.31-1.23-0.18-2.51-0.12-3.78
					c0.05-1.29,0.66-2.48,1.3-3.61c3.26-5.76,7.74-10.98,13.52-14.22c3.77-2.12,8.09-3.36,12.41-3.21
					c4.32,0.15,8.64,1.74,11.81,4.69C581.57,104.13,583.52,105.92,582.56,108.28"/>
			</g>
			<g>
				<g>
					<path class="st11" d="M543.22,131.82c-0.15-0.41-7.53-3.07-7.62,4.77c-0.09,7.62,7.59,6.12,7.61,5.9
						C543.22,142.27,543.22,131.82,543.22,131.82z"/>
				</g>
			</g>
			<g>
				<g>
					<g>
						<path class="st12" d="M540.88,139.58c-0.03-0.02-0.13,0.09-0.36,0.19c-0.22,0.1-0.6,0.16-0.99,0.01
							c-0.8-0.3-1.47-1.59-1.49-2.96c-0.01-0.69,0.14-1.35,0.39-1.9c0.24-0.56,0.6-0.94,1.01-1.01c0.4-0.09,0.69,0.16,0.78,0.37
							c0.1,0.21,0.05,0.37,0.09,0.38c0.02,0.02,0.16-0.13,0.11-0.44c-0.03-0.15-0.12-0.33-0.29-0.48c-0.18-0.15-0.45-0.23-0.73-0.2
							c-0.59,0.04-1.12,0.57-1.4,1.17c-0.31,0.6-0.49,1.34-0.48,2.12c0.03,1.54,0.81,2.98,1.9,3.31c0.53,0.14,0.98-0.01,1.22-0.19
							C540.87,139.76,540.91,139.59,540.88,139.58z"/>
					</g>
				</g>
			</g>
			<g>
				<path class="st10" d="M540.19,127.9c0.01,0.01,0.16-0.08,0.46-0.26c0.29-0.19,0.74-0.43,1.28-0.81
					c1.06-0.77,2.54-1.99,4.11-3.74c1.58-1.74,3.23-4.01,5.03-6.53c1.8-2.52,3.77-5.31,6.29-7.83c1.28-1.23,2.63-2.33,4.06-3.21
					c1.42-0.88,2.92-1.52,4.38-1.99c2.93-0.94,5.75-1.15,8.07-0.99c2.33,0.15,4.17,0.64,5.41,1.06c0.63,0.19,1.09,0.4,1.41,0.52
					c0.32,0.13,0.49,0.19,0.5,0.18c0.01-0.01-0.16-0.09-0.47-0.24c-0.31-0.14-0.77-0.38-1.39-0.59c-1.23-0.46-3.08-1-5.43-1.18
					c-2.34-0.19-5.2-0.01-8.18,0.93c-1.49,0.46-3.01,1.11-4.46,2c-1.46,0.88-2.83,2-4.12,3.25c-2.55,2.55-4.52,5.36-6.3,7.89
					c-1.78,2.54-3.41,4.8-4.95,6.55c-1.54,1.76-2.97,3-4.01,3.8c-0.52,0.39-0.96,0.66-1.23,0.86
					C540.33,127.78,540.19,127.89,540.19,127.9z"/>
			</g>
			<g>
				<path class="st7" d="M542.11,130.06c-0.12,2.08-0.22,4.28,0.75,6.13c0.96,1.85,3.39,3.11,5.19,2.07
					c1.48-0.84,1.92-2.73,2.17-4.41c0.72-4.85,1.05-9.76,1.82-14.6L542.11,130.06z"/>
			</g>
			<g>
				<path class="st10" d="M580.68,104.65c-0.01,0.04-0.67-0.13-1.89-0.17c-1.21-0.03-3.01,0.13-5.04,0.92
					c-1.01,0.39-2.09,0.92-3.16,1.63c-1.07,0.71-2.16,1.55-3.26,2.49c-2.19,1.89-4.45,4.16-6.38,6.88
					c-0.97,1.36-1.82,2.76-2.75,4.05c-0.92,1.3-1.94,2.47-3.05,3.43c-2.21,1.92-4.49,3.27-6.44,4.31c-1.95,1.03-3.58,1.75-4.7,2.25
					c-0.53,0.23-0.96,0.41-1.3,0.55c-0.3,0.12-0.46,0.18-0.47,0.17c-0.01-0.01,0.14-0.1,0.43-0.24c0.33-0.16,0.75-0.37,1.27-0.63
					c1.1-0.54,2.71-1.31,4.63-2.37c1.91-1.06,4.15-2.43,6.32-4.34c1.08-0.95,2.07-2.1,2.97-3.38c0.91-1.28,1.77-2.68,2.75-4.05
					c1.96-2.76,4.25-5.04,6.47-6.93c1.12-0.94,2.22-1.78,3.32-2.48c1.1-0.71,2.2-1.23,3.24-1.61c2.09-0.77,3.92-0.89,5.15-0.8
					c0.62,0.04,1.09,0.12,1.41,0.2C580.52,104.59,580.69,104.64,580.68,104.65z"/>
			</g>
			<g>
				<path class="st10" d="M541.9,125.35c0.01,0.02-0.23,0.18-0.67,0.45c-0.52,0.31-1.16,0.68-1.93,1.13
					c-0.21,0.12-0.42,0.24-0.65,0.37c-0.24,0.13-0.51,0.25-0.83,0.28c-0.16,0.01-0.35-0.01-0.52-0.12c-0.17-0.11-0.27-0.3-0.29-0.5
					c-0.02-0.4,0.2-0.69,0.36-0.96c0.69-1.1,1.44-2.3,2.24-3.58l0.3,0.28c-0.71,0.53-1.55,0.95-2.45,1.22
					c-0.91,0.27-1.84,0.37-2.73,0.32c-0.22-0.01-0.46-0.04-0.69-0.12c-0.22-0.08-0.48-0.23-0.59-0.51
					c-0.11-0.28-0.01-0.59,0.13-0.77c0.13-0.2,0.3-0.34,0.43-0.48c1.13-1.1,1.98-2.25,2.59-3.27c1.22-2.06,1.57-3.54,1.65-3.51
					c0.02,0.01-0.04,0.38-0.24,1.03c-0.21,0.64-0.55,1.57-1.15,2.63c-0.59,1.06-1.43,2.26-2.58,3.4c-0.28,0.27-0.57,0.58-0.46,0.82
					c0.09,0.24,0.52,0.36,0.92,0.36c0.84,0.04,1.72-0.06,2.58-0.31c0.85-0.26,1.64-0.65,2.32-1.15l0.91-0.67l-0.61,0.95
					c-0.82,1.27-1.58,2.47-2.28,3.56c-0.18,0.26-0.33,0.52-0.32,0.74c0.01,0.22,0.19,0.34,0.44,0.32c0.49-0.03,0.94-0.36,1.37-0.56
					c0.79-0.41,1.45-0.75,1.99-1.02C541.62,125.44,541.88,125.33,541.9,125.35z"/>
			</g>
			<g>
				<g>
					<g>
						<g>
							<g>
								<g>
									<g>
										<g>
											<path class="st12" d="M570.15,145.76c-0.7-0.86-1.9-1.3-3.07-1.14c-0.81,0.11-1.62,0.52-2.1,1.19
												c-0.47,0.67-0.55,1.6-0.08,2.21c0.53,0.69,1.59,0.81,2.48,0.54c0.89-0.28,1.64-0.88,2.36-1.48
												c0.2-0.17,0.4-0.34,0.52-0.56c0.12-0.22,0.14-0.51-0.02-0.69"/>
										</g>
									</g>
								</g>
							</g>
						</g>
					</g>
				</g>
			</g>
			<g>
				<g>
					<g>
						<g>
							<g>
								<g>
									<g>
										<g>
											<g>
												<path class="st7" d="M565.32,142.74c0.3-0.03,0.37,1.98,2.16,3.35c1.79,1.37,3.95,1.08,3.98,1.36
													c0.03,0.12-0.47,0.4-1.39,0.46c-0.9,0.06-2.22-0.19-3.32-1.02c-1.09-0.84-1.59-1.99-1.68-2.81
													C564.97,143.23,565.18,142.73,565.32,142.74z"/>
											</g>
										</g>
									</g>
								</g>
							</g>
						</g>
					</g>
				</g>
			</g>
		</g>
		<g>
			<polygon class="st7" points="593.73,278.09 601.92,296.59 562.17,311.46 553.28,291.57 			"/>
		</g>
		<g>
			<g>
				<g>
					<g>
						<g>
							<g>
								<g>
									<g>
										<g>
											<g>
												<path class="st10" d="M674.05,390.66l10.87,23.47c0,0,27.15-3.59,29.58,0.55l-44.39,23.14l-18.44-35.87L674.05,390.66z"
													/>
											</g>
										</g>
									</g>
								</g>
							</g>
						</g>
					</g>
				</g>
				<g>
					<g>
						<g>
							<g>
								<g>
									<g>
										<g>
											<g>
												<g>
													<path class="st0" d="M670.44,419.14c-0.75,0.68-0.86,1.97-0.21,2.75c0.65,0.78,1.96,0.9,2.72,0.23
														c0.76-0.67,0.94-2.21,0.2-2.91c-0.73-0.7-2.28-0.76-2.86,0.08"/>
												</g>
											</g>
										</g>
									</g>
								</g>
							</g>
						</g>
					</g>
				</g>
				<g>
					<g>
						<g>
							<g>
								<g>
									<g>
										<g>
											<g>
												<path class="st7" d="M670.11,437.81l-1.47-2.86l43.53-21.59c0,0,1.87,0.15,2.67,1.44L670.11,437.81z"/>
											</g>
										</g>
									</g>
								</g>
							</g>
						</g>
					</g>
				</g>
				<g>
					<g>
						<g>
							<g>
								<g>
									<g>
										<g>
											<g>
												<g>
													<path class="st7" d="M685.41,414.07c0.1,0.22-0.95,0.88-1.67,2.14c-0.76,1.24-0.83,2.48-1.08,2.49
														c-0.22,0.06-0.56-1.42,0.34-2.93C683.89,414.25,685.35,413.84,685.41,414.07z"/>
												</g>
											</g>
										</g>
									</g>
								</g>
							</g>
						</g>
					</g>
				</g>
				<g>
					<g>
						<g>
							<g>
								<g>
									<g>
										<g>
											<g>
												<g>
													<path class="st7" d="M691.12,413.62c0.16,0.19-0.6,1.05-0.88,2.36c-0.31,1.3,0.01,2.4-0.22,2.51
														c-0.19,0.14-1-1.07-0.62-2.69C689.77,414.16,691.01,413.41,691.12,413.62z"/>
												</g>
											</g>
										</g>
									</g>
								</g>
							</g>
						</g>
					</g>
				</g>
				<g>
					<g>
						<g>
							<g>
								<g>
									<g>
										<g>
											<g>
												<g>
													<path class="st7" d="M696.68,417.92c-0.18,0.15-1.04-0.8-1.09-2.29c-0.06-1.49,0.74-2.49,0.93-2.36
														c0.22,0.12-0.12,1.1-0.07,2.33C696.48,416.82,696.89,417.78,696.68,417.92z"/>
												</g>
											</g>
										</g>
									</g>
								</g>
							</g>
						</g>
					</g>
				</g>
				<g>
					<g>
						<g>
							<g>
								<g>
									<g>
										<g>
											<g>
												<g>
													<path class="st7" d="M682.31,408.96c0.01,0.25-1.15,0.46-2.36,1.17c-1.22,0.69-1.97,1.6-2.18,1.47
														c-0.21-0.09,0.32-1.39,1.75-2.21C680.94,408.55,682.33,408.73,682.31,408.96z"/>
												</g>
											</g>
										</g>
									</g>
								</g>
							</g>
						</g>
					</g>
				</g>
				<g>
					<g>
						<g>
							<g>
								<g>
									<g>
										<g>
											<g>
												<path class="st7" d="M680.59,403.58c0.05,0.09-0.75,0.67-2.26,1.13c-0.75,0.23-1.68,0.42-2.73,0.47
													c-0.52,0.03-1.08,0.02-1.65-0.03c-0.28-0.03-0.59-0.04-0.95-0.18c-0.36-0.11-0.8-0.62-0.7-1.12
													c0.06-0.46,0.39-0.82,0.71-0.99c0.33-0.18,0.63-0.25,0.91-0.31c0.56-0.13,1.12-0.21,1.65-0.23
													c1.06-0.05,2.01,0.1,2.77,0.31c1.54,0.44,2.31,1.08,2.26,1.16c-0.06,0.12-0.92-0.31-2.39-0.57
													c-0.73-0.13-1.62-0.2-2.59-0.11c-0.48,0.04-0.99,0.13-1.5,0.26c-0.54,0.12-0.95,0.32-0.96,0.59
													c0,0.1,0.01,0.14,0.18,0.23c0.17,0.08,0.43,0.1,0.7,0.13c0.53,0.06,1.05,0.08,1.54,0.08c0.98-0.01,1.87-0.12,2.61-0.27
													C679.66,403.83,680.54,403.46,680.59,403.58z"/>
											</g>
										</g>
									</g>
								</g>
							</g>
						</g>
					</g>
				</g>
			</g>
			<g>
				<g>
					<g>
						<g>
							<g>
								<g>
									<g>
										<g>
											<g>
												<path class="st10" d="M631.82,428.37l-1.37,25.83c0,0,25.67,9.53,25.88,14.33l-50.05-0.33l0.49-40.33L631.82,428.37z"/>
											</g>
										</g>
									</g>
								</g>
							</g>
						</g>
					</g>
				</g>
				<g>
					<g>
						<g>
							<g>
								<g>
									<g>
										<g>
											<g>
												<g>
													<path class="st0" d="M615.3,451.86c-0.98,0.25-1.68,1.34-1.47,2.33c0.21,0.99,1.31,1.71,2.3,1.48
														c0.99-0.23,1.86-1.51,1.54-2.48c-0.32-0.96-1.66-1.73-2.56-1.27"/>
												</g>
											</g>
										</g>
									</g>
								</g>
							</g>
						</g>
					</g>
				</g>
				<g>
					<g>
						<g>
							<g>
								<g>
									<g>
										<g>
											<g>
												<path class="st7" d="M606.27,468.2l0.04-3.21l48.58,1.29c0,0,1.58,1.01,1.69,2.52L606.27,468.2z"/>
											</g>
										</g>
									</g>
								</g>
							</g>
						</g>
					</g>
				</g>
				<g>
					<g>
						<g>
							<g>
								<g>
									<g>
										<g>
											<g>
												<g>
													<path class="st7" d="M630.89,454.37c-0.01,0.25-1.25,0.34-2.48,1.11c-1.25,0.74-1.89,1.8-2.12,1.7
														c-0.23-0.05,0.17-1.52,1.67-2.43C629.47,453.83,630.95,454.15,630.89,454.37z"/>
												</g>
											</g>
										</g>
									</g>
								</g>
							</g>
						</g>
					</g>
				</g>
				<g>
					<g>
						<g>
							<g>
								<g>
									<g>
										<g>
											<g>
												<g>
													<path class="st7" d="M636.16,456.65c0.05,0.24-1.02,0.64-1.88,1.67c-0.89,1-1.12,2.13-1.36,2.11
														c-0.23,0.04-0.38-1.41,0.71-2.67C634.7,456.5,636.16,456.42,636.16,456.65z"/>
												</g>
											</g>
										</g>
									</g>
								</g>
							</g>
						</g>
					</g>
				</g>
				<g>
					<g>
						<g>
							<g>
								<g>
									<g>
										<g>
											<g>
												<g>
													<path class="st7" d="M639.06,463.05c-0.23,0.05-0.55-1.19,0.11-2.53c0.65-1.35,1.82-1.86,1.92-1.65
														c0.14,0.21-0.63,0.92-1.15,2.03C639.39,461.99,639.3,463.03,639.06,463.05z"/>
												</g>
											</g>
										</g>
									</g>
								</g>
							</g>
						</g>
					</g>
				</g>
				<g>
					<g>
						<g>
							<g>
								<g>
									<g>
										<g>
											<g>
												<g>
													<path class="st7" d="M630.55,448.41c-0.11,0.22-1.23-0.14-2.63-0.07c-1.4,0.04-2.49,0.49-2.62,0.28
														c-0.14-0.18,0.94-1.08,2.58-1.14C629.53,447.41,630.68,448.22,630.55,448.41z"/>
												</g>
											</g>
										</g>
									</g>
								</g>
							</g>
						</g>
					</g>
				</g>
				<g>
					<g>
						<g>
							<g>
								<g>
									<g>
										<g>
											<g>
												<path class="st7" d="M631.55,442.86c0,0.1-0.98,0.24-2.53-0.06c-0.77-0.15-1.68-0.42-2.63-0.86
													c-0.48-0.22-0.96-0.49-1.44-0.8c-0.23-0.15-0.5-0.31-0.75-0.61c-0.27-0.26-0.41-0.92-0.09-1.31
													c0.27-0.38,0.73-0.54,1.09-0.55c0.37-0.01,0.67,0.07,0.95,0.15c0.56,0.15,1.08,0.34,1.56,0.57
													c0.96,0.46,1.73,1.03,2.31,1.57c1.15,1.11,1.54,2.03,1.45,2.08c-0.11,0.08-0.67-0.7-1.85-1.62
													c-0.59-0.46-1.34-0.93-2.23-1.31c-0.45-0.19-0.93-0.35-1.45-0.47c-0.53-0.15-0.99-0.16-1.13,0.07
													c-0.05,0.09-0.06,0.13,0.05,0.28c0.11,0.15,0.33,0.29,0.55,0.44c0.44,0.3,0.89,0.56,1.32,0.79
													c0.87,0.45,1.71,0.77,2.43,0.98C630.6,442.64,631.55,442.72,631.55,442.86z"/>
											</g>
										</g>
									</g>
								</g>
							</g>
						</g>
					</g>
				</g>
			</g>
			<g>
				<g>
					<g>
						<g>
							<g>
								<g>
									<g>
										<g>
											<g>
												<g>
													<path class="st7" d="M517.35,304.37c0,0,100.29-12.55,106.2-12.56c13.88-0.01,22.58,10.57,24.65,18.73
														c1.53,6.04,32.4,93.25,32.4,93.25l-22.77,11.81l-33.49-59.51l-17.07-29.69l-87.96,13.59L517.35,304.37z"/>
												</g>
											</g>
										</g>
									</g>
								</g>
								<g>
									<g>
										<g>
											<g>
												<g>
													<path class="st7" d="M611.41,323.65c0,0,13.74,0,21.17,11c4.36,6.46,2.83,18.01,2.92,26.73
														c0.12,11.87-2.75,84.19-2.75,84.19l-28.11,0.47l-5.89-75.37l0.35-13.93l-56.13-4.57c0,0-5.11-17.02,7.46-30.44
														C552.04,319.99,611.41,323.65,611.41,323.65z"/>
												</g>
											</g>
										</g>
									</g>
								</g>
							</g>
						</g>
						<g>
							<g>
								<g>
									<g>
										<path class="st7" d="M525.92,280.12c0,0-22.17,34.12-8.57,59.75c6.48,12.22,25.88,12.2,25.88,12.2l19.88-24.9v-41.19
											L525.92,280.12z"/>
									</g>
								</g>
							</g>
						</g>
					</g>
				</g>
			</g>
			<g>
				<g>
					<g>
						<path class="st10" d="M543.22,352.08c0-0.01,0.12-0.08,0.37-0.2c0.28-0.13,0.65-0.3,1.12-0.52c1.02-0.46,2.47-1.12,4.33-1.96
							c3.8-1.69,9.24-4.12,15.95-7.11c6.75-2.99,14.78-6.53,23.69-10.47c4.46-1.97,9.14-4.03,13.99-6.17
							c1.23-0.52,2.41-1.12,3.71-1.56c1.28-0.48,2.63-0.77,3.99-1.02c2.74-0.42,5.57-0.43,8.38-0.07c2.82,0.35,5.55,1.1,8.07,2.29
							c1.24,0.62,2.46,1.31,3.47,2.27c1.04,0.92,1.86,2.03,2.55,3.19c1.36,2.33,2.12,4.93,2.35,7.51c0.11,1.3,0.03,2.56,0.04,3.81
							c-0.01,1.25-0.03,2.48-0.04,3.7c-0.11,9.74-0.21,18.52-0.3,25.9c-0.1,7.35-0.19,13.31-0.25,17.46
							c-0.04,2.04-0.07,3.63-0.1,4.75c-0.02,0.52-0.03,0.93-0.04,1.23c-0.01,0.28-0.02,0.42-0.03,0.42c-0.01,0-0.02-0.14-0.02-0.42
							c0-0.31-0.01-0.71-0.02-1.23c0-1.12-0.01-2.71-0.01-4.75c0.02-4.15,0.04-10.11,0.07-17.46c0.05-7.38,0.11-16.16,0.18-25.9
							c0.01-1.22,0.02-2.45,0.03-3.7c-0.01-1.25,0.07-2.52-0.04-3.76c-0.22-2.5-0.97-5.03-2.29-7.27c-0.66-1.12-1.46-2.19-2.44-3.05
							c-0.96-0.9-2.14-1.57-3.34-2.17c-2.44-1.15-5.13-1.89-7.9-2.23c-2.76-0.35-5.54-0.34-8.22,0.07
							c-1.33,0.24-2.65,0.53-3.89,0.99c-1.25,0.42-2.47,1.04-3.68,1.55c-4.86,2.13-9.54,4.18-14.01,6.14
							c-8.93,3.9-16.97,7.41-23.73,10.36c-6.74,2.92-12.21,5.29-16.02,6.94c-1.87,0.8-3.34,1.42-4.37,1.86
							c-0.48,0.2-0.86,0.35-1.14,0.47C543.36,352.04,543.23,352.09,543.22,352.08z"/>
					</g>
				</g>
			</g>
		</g>
		<g>
			<g>
				<line class="st10" x1="527.41" y1="301.88" x2="621.57" y2="291.81"/>
			</g>
			<g>
				<g>
					<path class="st10" d="M621.57,291.81c0.02,0.14-21.05,2.51-47.05,5.29c-26,2.78-47.09,4.92-47.11,4.78
						c-0.02-0.14,21.05-2.51,47.05-5.29C600.46,293.81,621.55,291.67,621.57,291.81z"/>
				</g>
			</g>
		</g>
		<g>
			<g>
				<g>
					<path class="st8" d="M596.78,242.1c1.63-5.19,7.33-24.29,6.05-34.35c-1.02-8.05-8.22-18.34-10.38-23.84
						c-1.02-2.59-9.11-5.26-13.93-6.68l-4.8-5.67l-0.4,2.77c-2.34,2.95-7.01,5.07-11.46,4.68c-7.13-0.63-12.95-3.55-16.87-7.85
						c-18.52,5.65-18.46,6.91-22.02,8.32c-4.58,1.82,9.12,45.71,9.12,45.71s4.91,27.57,0.29,36.86c-2.6,5.23-5.61,11.2-7.83,16.06
						c0,0-6.15,11.74-4.84,11.43c2.77-0.64,22.01,4.02,40.07,4.97c33.41,1.75,39.8-3.2,39.8-3.2c-1.74-8.54-4.67-38.52-4.67-44.33
						C594.91,246,596.49,243.02,596.78,242.1z"/>
				</g>
				<g>
					<g>
						<g>
							<g>
								<g>
									<path class="st8" d="M574.3,172.91c0,0,21.77,5.61,23.9,8.5c5.79,7.87,40.67,61.72,23.55,77.78
										c-11.22,10.52-26.97-11.67-26.97-11.67L574.3,172.91z"/>
								</g>
							</g>
						</g>
					</g>
				</g>
				<g>
					<g>
						<g>
							<path class="st7" d="M619.66,236.33c-0.01,0.03-0.55-0.06-1.53-0.26c-1.07-0.22-2.47-0.51-4.17-0.86
								c-3.55-0.72-8.52-1.73-14.22-2.55l0.3-0.17c-0.55,1.36-1.12,2.77-1.71,4.22c-1.46,3.57-2.85,6.95-4.06,9.91l-0.04-0.25
								c2.55,3.06,4.71,5.65,6.3,7.56c0.71,0.88,1.29,1.6,1.75,2.16c0.4,0.51,0.6,0.79,0.58,0.8c-0.02,0.02,1.61,0.74-0.7-0.7
								c-0.49-0.54-1.11-1.23-1.86-2.08c-1.63-1.88-3.85-4.43-6.46-7.43l-0.1-0.11l0.06-0.14c1.2-2.97,2.56-6.35,4-9.93
								c0.59-1.44,1.16-2.85,1.72-4.21l0.08-0.2l0.22,0.03c5.74,0.85,10.69,1.93,14.22,2.75c1.77,0.41,3.17,0.76,4.14,1.02
								C619.14,236.14,619.66,236.3,619.66,236.33z"/>
						</g>
					</g>
				</g>
				<g>
					<g>
						<g>
							<path class="st7" d="M598.72,233.8c-0.04-0.01,0.02-0.63,0.16-1.77c0.15-1.22,0.36-2.84,0.61-4.79
								c0.47-4.03,1.12-9.66,0.53-15.83c-0.55-6.18-2.67-11.49-4.5-15.12c-0.92-1.83-1.74-3.26-2.32-4.25
								c-0.58-0.99-0.91-1.53-0.87-1.56c0.02-0.01,0.12,0.11,0.3,0.36c0.18,0.24,0.44,0.61,0.76,1.09c0.64,0.96,1.52,2.37,2.49,4.19
								c1.93,3.61,4.15,8.98,4.71,15.25c0.59,6.24-0.13,11.9-0.7,15.93c-0.29,2.02-0.58,3.65-0.78,4.77
								C598.89,233.18,598.76,233.8,598.72,233.8z"/>
						</g>
					</g>
				</g>
			</g>
			<g class="st9">
				<path d="M527.41,274.02l41.21-18.98l-2.79-8.15l6.34-2.42l10.33,1.35c5.18,0.68,10.38-1.1,14.06-4.81l0,0l-25.66-6.5
					l-29.28,6.25l-7.44-21.58l-1.83,6.32l1.53,13.57l1.04,14.66L527.41,274.02z"/>
			</g>
			<g>
				<g>
					<g>
						<g>
							<g>
								<g>
									<path class="st8" d="M523.48,179.25c0,0-8.1,3.09-10.54,12.08c0,0-1.76,3.54-3.19,9.84c-3.48,15.3-10.98,44.04-11.28,51.66
										c-0.54,13.78,10.42,17.69,16.33,18.89c5.92,1.21,47.03-20.07,47.03-20.07l-8.54-23.21l-25.11,10.39
										c0,0,5.73-17.7,7.39-24.94C537.21,206.66,523.48,179.25,523.48,179.25z"/>
								</g>
							</g>
						</g>
					</g>
				</g>
			</g>
			<g>
				<g>
					<g>
						<g>
							<g>
								<g>
									<g>
										<g>
											<path class="st11" d="M599.89,229.92c-0.5-2.27-0.58-4.63-0.23-6.93c0.21-1.38,0.4-2.82,0.15-4.19
												c-0.26-1.37-1.54-2.83-2.93-2.71l-2.1,10.09L599.89,229.92z"/>
										</g>
									</g>
								</g>
							</g>
						</g>
					</g>
				</g>
				<g>
					<g>
						<g>
							<g>
								<g>
									<g>
										<g>
											<g>
												<path class="st7" d="M598.92,206.24l-7.39,35.66L574,240.84l5.19-35.27c0.14-0.93,0.93-1.62,1.87-1.62l16.01,0.02
													C598.27,203.97,599.16,205.07,598.92,206.24z"/>
											</g>
										</g>
									</g>
								</g>
							</g>
						</g>
					</g>
					<g>
						<g>
							<g>
								<g>
									<g>
										<g>
											<g>
												<g>
													<path class="st10" d="M579.21,215.51c0.02,0,0.12-0.37,0.27-1.05c0.15-0.75,0.35-1.72,0.59-2.88
														c0.24-1.24,0.52-2.69,0.83-4.29c0.04-0.2,0.07-0.42,0.13-0.58c0.06-0.17,0.17-0.33,0.31-0.45
														c0.14-0.12,0.31-0.21,0.5-0.25c0.17-0.05,0.4-0.02,0.62-0.03c0.9,0,1.82-0.01,2.77-0.01c3.79-0.02,7.23-0.06,9.71-0.11
														c1.19-0.03,2.18-0.06,2.94-0.07c0.69-0.03,1.08-0.05,1.08-0.08c0-0.03-0.38-0.05-1.08-0.07
														c-0.76-0.01-1.75-0.03-2.94-0.04c-2.49-0.02-5.92-0.02-9.71,0c-0.95,0.01-1.87,0.01-2.77,0.02
														c-0.22,0.01-0.44-0.02-0.7,0.04c-0.24,0.05-0.47,0.17-0.65,0.34c-0.18,0.16-0.32,0.37-0.4,0.59
														c-0.08,0.24-0.09,0.43-0.14,0.64c-0.28,1.6-0.53,3.05-0.75,4.3c-0.19,1.18-0.35,2.15-0.48,2.91
														C579.23,215.12,579.19,215.5,579.21,215.51z"/>
												</g>
											</g>
										</g>
									</g>
								</g>
							</g>
						</g>
					</g>
					<g>
						<g>
							<g>
								<g>
									<g>
										<g>
											<g>
												<path class="st4" d="M588.58,207.73c0.17-0.31,0.52-0.7,1.05-0.52c0.21,0.02,0.6,0.33,0.62,0.7
													c0.02,0.36-0.17,0.72-0.48,0.89c-0.31,0.17-0.73,0.14-1-0.1C588.5,208.47,588.41,208.04,588.58,207.73z"/>
											</g>
										</g>
									</g>
								</g>
							</g>
						</g>
					</g>
				</g>
				<g>
					<g>
						<g>
							<g>
								<g>
									<g>
										<g>
											<path class="st11" d="M589.06,218.49c0.4,0.1,9.68,4.89,9.68,4.89l4.84,5.1c0,0,1.74,2.95,0.33,7.56
												c-1.42,4.61-3.73,6.23-9.06,7.54l-10.08-1.59l-5.09-4.18c-1-0.82-1.4-2.17-1.01-3.41l0.07-0.21l-0.58-0.96
												c-0.36-0.61-0.33-1.37,0.09-1.94l0,0c0.57-0.78,1.67-0.95,2.44-0.38l5.74,4.2l3.95,0.52l0.59-1.3l-5.79-3.01l-7.37-5.7
												c-0.97-0.75-1.12-2.17-0.33-3.11l0,0c0.68-0.8,1.84-1,2.75-0.47l6.84,4.02l7.14,3.15l-1.13-2.84l-8.4-6.22
												C584.71,220.18,584.04,217.21,589.06,218.49z"/>
										</g>
									</g>
								</g>
							</g>
						</g>
					</g>
				</g>
				<g>
					<g>
						<g>
							<g>
								<g>
									<g>
										<g>
											<g>
												<path class="st11" d="M588.22,213.6c0,0-1.93-1.11-5.14,0.22c-3.21,1.33-7.3,3.34-7.3,3.34l-6.15,1.76l0.73-1.52
													c0,0,6.07,0.62,5.78-3.8l-3.66,0.16l-3.14-1.61l-6.18,6.02l-2.33,8.51l-6.81,3.53l5.35,14.56l9.61-5.33l12.04-0.24
													l4.41-3.56l0.49-4.53l4.32-4.4c0,0,0.55-2.2-1.44-2.42c-1.99-0.21-6.79,4.55-6.79,4.55l-4.8,0.12
													c0,0-0.83-0.76-0.15-1.18c0.68-0.43,14.84-7.39,15.47-8.95c0.63-1.56,1.28-2.58-0.13-3.02
													c-1.41-0.43-3.75,0.36-3.75,0.36S589.29,213.94,588.22,213.6z"/>
											</g>
										</g>
									</g>
								</g>
							</g>
						</g>
					</g>
					<g>
						<g>
							<g>
								<g>
									<g>
										<g>
											<g>
												<g>
													<path class="st12" d="M576.47,222.3c0.05,0.09,2.87-1.23,6.31-2.94c3.44-1.72,6.19-3.18,6.15-3.27
														c-0.05-0.09-2.87,1.23-6.31,2.94C579.18,220.74,576.42,222.21,576.47,222.3z"/>
												</g>
											</g>
										</g>
									</g>
								</g>
							</g>
						</g>
					</g>
					<g>
						<g>
							<g>
								<g>
									<g>
										<g>
											<g>
												<g>
													<path class="st12" d="M573.61,233.61c-0.01,0.02,0.25,0.11,0.72,0.23c0.47,0.12,1.15,0.29,2.02,0.45
														c0.86,0.15,1.9,0.28,3.07,0.21c1.17-0.06,2.45-0.38,3.64-1.01c2.42-1.25,4.02-3.16,5.09-4.51
														c0.54-0.69,0.94-1.26,1.22-1.66c0.27-0.4,0.42-0.63,0.4-0.65c-0.05-0.04-0.71,0.82-1.82,2.15
														c-1.11,1.3-2.72,3.15-5.06,4.35c-1.16,0.6-2.37,0.92-3.5,1c-1.13,0.08-2.15-0.02-3.01-0.13
														C574.68,233.78,573.62,233.55,573.61,233.61z"/>
												</g>
											</g>
										</g>
									</g>
								</g>
							</g>
						</g>
					</g>
				</g>
			</g>
			<g>
				<g>
					<g>
						<g>
							<g>
								<g>
									<g>
										<path class="st12" d="M553.96,230.19c0-0.01,0.14-0.1,0.43-0.26c0.32-0.17,0.75-0.41,1.3-0.7
											c1.17-0.62,2.86-1.52,5.03-2.67l-0.06,0.07c0.62-2.32,1.39-5.19,2.28-8.52l0.01-0.04l0.03-0.03
											c1.83-1.8,3.91-3.83,6.16-6.04l0.1-0.1l0.13,0.06c0.97,0.5,2.05,1.04,3.15,1.61l-0.1-0.02c1.13-0.05,2.38-0.11,3.66-0.17
											l0.23-0.01l0,0.21c0,0.65-0.02,1.37-0.39,1.98c-0.34,0.62-0.89,1.1-1.52,1.41c-1.27,0.61-2.69,0.73-4.12,0.65l0.23-0.13
											c-0.22,0.47-0.47,0.99-0.72,1.52l-0.28-0.33c1.94-0.56,4.02-1.15,6.15-1.77l-0.04,0.02c1.94-0.89,3.92-1.8,5.95-2.72
											c1.92-0.98,4.39-1.88,6.74-0.84l-0.05-0.02c0.29,0.09,0.52,0.33,0.63,0.59c0.11,0.26,0.15,0.53,0.16,0.78
											c0.01,0.52-0.07,1.01-0.21,1.5l-0.33-0.32c0.71-0.23,1.43-0.39,2.19-0.47c0.75-0.05,1.58-0.11,2.34,0.42
											c0.19,0.14,0.34,0.38,0.38,0.63c0.04,0.24,0,0.46-0.04,0.67c-0.1,0.4-0.26,0.76-0.4,1.11l-0.22,0.53
											c-0.03,0.08-0.08,0.19-0.16,0.31c-0.07,0.1-0.14,0.17-0.22,0.25c-0.3,0.29-0.61,0.51-0.93,0.75
											c-2.57,1.73-5.24,3.12-7.86,4.52c-1.31,0.68-2.62,1.36-3.9,2.03c-0.64,0.33-1.29,0.66-1.92,0.99
											c-0.29,0.16-0.72,0.34-0.76,0.47c-0.08,0.12,0.1,0.45,0.32,0.65l-0.18-0.07c1.63-0.04,3.23-0.08,4.8-0.11l-0.17,0.07
											c1.47-1.4,2.96-2.71,4.62-3.76c0.41-0.26,0.86-0.49,1.32-0.67c0.46-0.17,1.05-0.25,1.54-0.07c0.51,0.15,0.95,0.59,1.1,1.1
											c0.15,0.51,0.15,1,0.04,1.5l-0.01,0.06l-0.05,0.05c-1.5,1.52-2.94,2.98-4.33,4.39l0.06-0.13
											c-0.17,1.56-0.34,3.07-0.5,4.53l-0.01,0.09l-0.07,0.05c-1.55,1.24-3.02,2.42-4.42,3.55l-0.05,0.04l-0.06,0
											c-4.66,0.07-8.71,0.13-12.04,0.18l0.06-0.02c-3.08,1.67-5.48,2.99-7.15,3.89c-0.8,0.43-1.43,0.76-1.88,1
											c-0.2,0.1-0.36,0.18-0.48,0.25c-0.11,0.05-0.17,0.08-0.17,0.07c0-0.01,0.05-0.04,0.15-0.1c0.12-0.07,0.27-0.16,0.47-0.28
											c0.44-0.25,1.05-0.61,1.84-1.06c1.65-0.93,4.04-2.28,7.09-4.01l0.03-0.02l0.03,0c3.34-0.08,7.38-0.18,12.04-0.29
											l-0.11,0.04c1.4-1.13,2.86-2.32,4.4-3.57l-0.08,0.14c0.15-1.46,0.31-2.97,0.48-4.53l0.01-0.07l0.05-0.05
											c1.38-1.42,2.82-2.88,4.31-4.41l-0.06,0.11c0.18-0.8-0.01-1.83-0.84-2.04c-0.79-0.28-1.67,0.23-2.47,0.7
											c-1.6,1.01-3.09,2.32-4.52,3.71l-0.07,0.07l-0.1,0c-1.58,0.04-3.18,0.08-4.8,0.12l-0.11,0l-0.07-0.07
											c-0.15-0.15-0.27-0.3-0.38-0.49c-0.09-0.18-0.18-0.46-0.06-0.73c0.12-0.26,0.36-0.39,0.51-0.47l0.48-0.25
											c0.64-0.33,1.28-0.66,1.92-0.99c1.29-0.67,2.59-1.35,3.9-2.03c2.6-1.4,5.29-2.8,7.8-4.49c0.3-0.22,0.61-0.45,0.87-0.69
											c0.05-0.06,0.12-0.13,0.16-0.18c0.03-0.05,0.07-0.1,0.1-0.2l0.22-0.53c0.27-0.66,0.67-1.5,0.22-1.8
											c-0.49-0.36-1.28-0.37-1.97-0.31c-0.71,0.07-1.42,0.23-2.08,0.44l-0.46,0.15l0.13-0.46c0.12-0.44,0.2-0.91,0.19-1.34
											c0-0.44-0.15-0.82-0.43-0.9l-0.01,0l-0.04-0.02c-0.94-0.44-2.13-0.48-3.19-0.28c-1.08,0.18-2.08,0.67-3.1,1.14
											c-2.02,0.92-4,1.82-5.93,2.7l-0.02,0.01l-0.02,0c-2.13,0.61-4.22,1.2-6.16,1.75l-0.5,0.14l0.23-0.47
											c0.25-0.53,0.51-1.05,0.73-1.52l0.07-0.14l0.16,0.01c1.33,0.09,2.73-0.03,3.87-0.59c0.56-0.28,1.04-0.7,1.33-1.22
											c0.32-0.52,0.33-1.15,0.34-1.74l0.22,0.2c-1.28,0.05-2.53,0.1-3.66,0.15l-0.06,0l-0.05-0.02
											c-1.1-0.57-2.17-1.12-3.14-1.62l0.23-0.03c-2.27,2.19-4.36,4.21-6.2,5.99l0.04-0.07c-0.93,3.32-1.73,6.19-2.38,8.5
											l-0.01,0.05l-0.04,0.02c-2.19,1.11-3.89,1.97-5.08,2.57c-0.56,0.28-1,0.49-1.32,0.65
											C554.12,230.13,553.96,230.2,553.96,230.19z"/>
									</g>
								</g>
							</g>
						</g>
					</g>
				</g>
			</g>
			<g>
				<g>
					<path class="st7" d="M528.16,267.71c-0.01-0.01,0.21-0.13,0.63-0.34c0.46-0.22,1.07-0.53,1.85-0.91
						c1.66-0.8,4.02-1.93,6.97-3.35c6-2.84,14.39-6.8,24.1-11.39l-0.13,0.31c-1.55-4.27-3.23-8.88-4.97-13.65
						c-1.22-3.37-2.42-6.67-3.57-9.84l0.34,0.15c-9.54,4.01-18.04,7.57-24.56,10.31L528.8,239l-0.03,0
						c-2.24,0.22-4.24,0.66-5.89,1.31c-1.66,0.65-2.94,1.51-3.82,2.39c-0.89,0.88-1.36,1.74-1.61,2.35c-0.12,0.3-0.2,0.54-0.24,0.71
						c-0.04,0.16-0.06,0.25-0.07,0.25c-0.01,0-0.01-0.09,0.02-0.26c0.03-0.17,0.09-0.41,0.2-0.73c0.22-0.62,0.68-1.53,1.57-2.45
						c0.88-0.92,2.18-1.84,3.86-2.52c1.67-0.69,3.7-1.16,5.96-1.41l-0.05,0.01c6.5-2.77,14.98-6.39,24.5-10.45l0.25-0.11l0.09,0.25
						c1.16,3.18,2.36,6.47,3.58,9.84c1.73,4.77,3.41,9.39,4.95,13.65l0.08,0.22l-0.21,0.1c-9.74,4.52-18.16,8.43-24.18,11.23
						c-2.97,1.36-5.36,2.45-7.03,3.21c-0.8,0.35-1.42,0.63-1.89,0.84C528.39,267.63,528.16,267.72,528.16,267.71z"/>
				</g>
			</g>
			<g>
				<g>
					<path class="st7" d="M536.54,203.95c-0.07,0.03-0.64-1.12-1.63-2.94c-0.99-1.82-2.42-4.3-4.19-6.92
						c-1.77-2.61-3.54-4.86-4.87-6.46c-1.33-1.59-2.18-2.55-2.13-2.6c0.03-0.02,0.27,0.19,0.69,0.59c0.42,0.4,1.01,1.01,1.71,1.78
						c1.4,1.54,3.24,3.77,5.02,6.41c1.78,2.64,3.18,5.16,4.08,7.04c0.45,0.94,0.8,1.71,1.01,2.25
						C536.47,203.63,536.57,203.93,536.54,203.95z"/>
				</g>
			</g>
			<g>
				<g>
					<path class="st7" d="M537.53,208.9c0.04,0.01-0.06,0.46-0.28,1.26c-0.22,0.8-0.55,1.96-0.97,3.38
						c-0.85,2.85-2.05,6.76-3.44,11.07c-1.39,4.31-2.69,8.2-3.69,11c-0.5,1.4-0.91,2.53-1.22,3.3c-0.3,0.77-0.49,1.2-0.52,1.18
						c-0.03-0.01,0.09-0.46,0.33-1.25c0.28-0.89,0.64-2.01,1.06-3.35c0.94-2.93,2.17-6.78,3.54-11.04c1.38-4.25,2.64-8.1,3.59-11.02
						c0.45-1.33,0.83-2.44,1.13-3.33C537.33,209.32,537.5,208.89,537.53,208.9z"/>
				</g>
			</g>
		</g>
	</g>
</g>
</svg>
